<svg xmlns="http://www.w3.org/2000/svg" xmlns:xlink="http://www.w3.org/1999/xlink" width="500" zoomAndPan="magnify" viewBox="0 0 375 374.999991" height="500" preserveAspectRatio="xMidYMid meet" version="1.0"><defs><clipPath id="06e16b8716"><path d="M 10.167969 82.058594 L 364.917969 82.058594 L 364.917969 292.808594 L 10.167969 292.808594 Z M 10.167969 82.058594 " clip-rule="nonzero"/></clipPath></defs><g clip-path="url(#06e16b8716)"><path fill="#00bf63" d="M 66.320312 224.160156 L 72.851562 224.160156 C 75.648438 224.160156 77.890625 226.398438 77.890625 229.195312 C 77.890625 231.996094 75.648438 234.234375 72.851562 234.234375 L 66.320312 234.234375 C 63.523438 234.234375 61.285156 231.996094 61.285156 229.195312 C 61.285156 226.398438 63.523438 224.160156 66.320312 224.160156 Z M 57.925781 83.117188 L 96.917969 83.117188 C 98.96875 83.117188 100.835938 84.425781 101.394531 86.476562 L 139.082031 209.609375 C 139.640625 211.660156 141.507812 212.964844 143.558594 212.964844 C 145.609375 212.964844 147.476562 211.660156 148.035156 209.792969 L 188.894531 85.730469 C 189.453125 83.863281 191.320312 82.558594 193.371094 82.558594 L 225.648438 82.558594 C 227.699219 82.558594 229.566406 83.863281 230.125 85.730469 L 270.980469 209.609375 C 271.726562 211.660156 273.40625 212.964844 275.460938 212.777344 C 277.511719 212.777344 279.375 211.472656 279.9375 209.421875 L 317.621094 86.289062 C 318.183594 84.238281 320.046875 82.929688 322.101562 82.929688 L 359.785156 82.929688 C 361.277344 82.929688 362.769531 83.675781 363.703125 84.984375 C 364.636719 86.289062 364.824219 87.78125 364.261719 89.273438 L 296.539062 289.082031 C 295.792969 291.136719 294.117188 292.253906 292.0625 292.253906 L 259.042969 292.253906 C 256.988281 292.253906 255.308594 290.949219 254.5625 289.082031 L 213.332031 169.308594 C 212.585938 167.445312 210.910156 166.136719 208.855469 166.136719 C 206.804688 166.136719 205.125 167.445312 204.378906 169.308594 L 163.148438 289.269531 C 162.402344 291.136719 160.722656 292.441406 158.671875 292.441406 L 115.761719 292.441406 C 115.203125 291.695312 115.015625 290.761719 115.015625 289.644531 C 115.015625 287.03125 117.066406 284.792969 119.679688 284.605469 L 130.871094 284.605469 C 133.671875 284.605469 135.910156 282.367188 135.910156 279.570312 C 135.910156 276.769531 133.671875 274.53125 130.871094 274.53125 L 88.523438 274.53125 C 85.722656 274.53125 83.484375 272.292969 83.484375 269.496094 C 83.484375 266.695312 85.722656 264.457031 88.523438 264.457031 L 116.878906 264.457031 C 119.679688 264.457031 121.917969 262.21875 121.917969 259.421875 C 121.917969 256.621094 119.679688 254.382812 116.878906 254.382812 L 100.648438 254.382812 C 97.851562 254.382812 95.613281 252.144531 95.613281 249.34375 C 95.613281 246.546875 97.851562 244.308594 100.648438 244.308594 L 105.6875 244.308594 C 108.296875 244.308594 110.539062 242.070312 110.539062 239.269531 C 110.539062 236.472656 108.296875 234.234375 105.5 234.234375 L 86.65625 234.234375 C 83.859375 234.234375 81.621094 231.996094 81.621094 229.195312 C 81.621094 226.398438 83.859375 224.160156 86.65625 224.160156 L 118.371094 224.160156 C 121.171875 224.160156 123.410156 221.921875 123.410156 219.121094 C 123.410156 216.324219 121.171875 214.085938 118.371094 214.085938 L 83.484375 214.085938 C 80.6875 214.085938 78.449219 211.847656 78.449219 209.046875 C 78.449219 206.25 80.6875 204.011719 83.484375 204.011719 L 101.582031 204.011719 C 104.378906 204.011719 106.621094 201.773438 106.621094 198.972656 C 106.621094 196.175781 104.378906 193.9375 101.582031 193.9375 L 83.300781 193.9375 C 80.5 193.9375 78.261719 191.699219 78.261719 188.898438 C 78.261719 186.101562 80.5 183.863281 83.300781 183.863281 L 87.21875 183.863281 C 90.015625 183.863281 92.253906 181.625 92.253906 178.824219 C 92.253906 176.027344 90.015625 173.789062 87.21875 173.789062 L 72.292969 173.789062 C 69.492188 173.789062 67.253906 171.550781 67.253906 168.75 C 67.253906 165.953125 69.492188 163.714844 72.292969 163.714844 L 95.238281 163.714844 C 98.039062 163.714844 100.277344 161.472656 100.277344 158.675781 C 100.277344 155.878906 98.039062 153.640625 95.238281 153.640625 L 54.941406 153.640625 C 52.144531 153.640625 49.90625 151.398438 49.90625 148.601562 C 49.90625 145.804688 52.144531 143.5625 54.941406 143.5625 L 75.648438 143.5625 C 78.449219 143.5625 80.6875 141.324219 80.6875 138.527344 C 80.6875 136.101562 78.820312 134.050781 76.582031 133.488281 L 65.015625 133.488281 C 62.21875 133.488281 59.980469 131.25 59.980469 128.453125 C 59.980469 125.65625 62.21875 123.414062 65.015625 123.414062 L 73.410156 123.414062 C 75.648438 122.855469 77.328125 120.804688 77.328125 118.566406 C 77.328125 115.765625 75.089844 113.527344 72.292969 113.527344 L 67.441406 113.527344 C 67.253906 113.527344 66.882812 113.527344 66.507812 113.527344 L 48.785156 113.527344 C 45.988281 113.527344 43.746094 111.289062 43.746094 108.492188 C 43.746094 105.691406 45.988281 103.453125 48.785156 103.453125 L 59.234375 103.453125 C 62.03125 103.453125 64.269531 101.214844 64.269531 98.417969 C 64.269531 95.992188 62.402344 93.9375 60.164062 93.378906 L 40.203125 93.378906 C 37.40625 93.378906 35.164062 91.140625 35.164062 88.339844 C 35.164062 85.542969 37.40625 83.304688 40.203125 83.304688 L 57.925781 83.304688 Z M 26.398438 143.378906 L 39.457031 143.378906 C 42.253906 143.378906 44.492188 145.617188 44.492188 148.414062 C 44.492188 151.214844 42.253906 153.453125 39.457031 153.453125 L 26.398438 153.453125 C 23.597656 153.453125 21.359375 151.214844 21.359375 148.414062 C 21.359375 145.617188 23.597656 143.378906 26.398438 143.378906 Z M 15.203125 203.824219 L 64.269531 203.824219 C 67.066406 203.824219 69.308594 206.0625 69.308594 208.863281 C 69.308594 211.660156 67.066406 213.898438 64.269531 213.898438 L 15.203125 213.898438 C 12.40625 213.898438 10.167969 211.660156 10.167969 208.863281 C 10.167969 206.25 12.40625 203.824219 15.203125 203.824219 Z M 78.074219 244.308594 L 82.925781 244.308594 C 85.722656 244.308594 87.964844 246.546875 87.964844 249.34375 C 87.964844 252.144531 85.722656 254.382812 82.925781 254.382812 L 78.074219 254.382812 C 75.277344 254.382812 73.039062 252.144531 73.039062 249.34375 C 73.039062 246.546875 75.464844 244.308594 78.074219 244.308594 Z M 45.800781 183.675781 L 69.308594 183.675781 C 72.105469 183.675781 74.34375 185.914062 74.34375 188.710938 C 74.34375 191.511719 72.105469 193.75 69.308594 193.75 L 45.800781 193.75 C 43 193.75 40.761719 191.511719 40.761719 188.710938 C 40.761719 185.914062 43 183.675781 45.800781 183.675781 Z M 32.179688 103.265625 L 36.660156 103.265625 C 39.457031 103.265625 41.695312 105.503906 41.695312 108.304688 C 41.695312 111.101562 39.457031 113.339844 36.660156 113.339844 L 32.179688 113.339844 C 29.382812 113.339844 27.144531 111.101562 27.144531 108.304688 C 27.144531 105.503906 29.382812 103.265625 32.179688 103.265625 Z M 32.179688 103.265625 " fill-opacity="1" fill-rule="evenodd"/></g></svg>