<?xml version="1.0" standalone="no"?>
<!DOCTYPE svg PUBLIC "-//W3C//DTD SVG 20010904//EN"
 "http://www.w3.org/TR/2001/REC-SVG-20010904/DTD/svg10.dtd">
<svg version="1.0" xmlns="http://www.w3.org/2000/svg"
 width="3456.000000pt" height="1984.000000pt" viewBox="0 0 3456.000000 1984.000000"
 preserveAspectRatio="xMidYMid meet">

<g transform="translate(0.000000,1984.000000) scale(0.100000,-0.100000)"
fill="#000000" stroke="none">
<path d="M10470 19293 c0 -5 11 -20 24 -32 14 -13 33 -40 42 -60 10 -20 19
-30 21 -24 3 7 -4 28 -16 46 -23 38 -71 85 -71 70z"/>
<path d="M10463 19230 c14 -16 28 -39 32 -50 3 -11 11 -20 16 -20 6 0 5 9 -2
23 -21 40 -50 77 -61 77 -5 0 2 -13 15 -30z"/>
<path d="M5660 19206 c0 -3 25 -97 55 -210 30 -112 55 -207 55 -211 0 -3 23
-5 52 -3 l52 3 34 140 c41 169 44 177 49 150 4 -22 48 -198 64 -257 10 -37 11
-38 59 -38 l49 0 12 43 c6 23 31 115 55 205 24 89 44 167 44 172 0 6 -20 10
-44 10 -34 0 -46 -4 -50 -17 -8 -31 -54 -236 -62 -278 l-7 -40 -9 40 c-5 22
-23 97 -40 168 l-30 127 -47 0 -47 0 -33 -142 c-47 -204 -46 -202 -55 -148 -3
25 -19 99 -35 165 l-28 120 -46 3 c-26 2 -47 1 -47 -2z"/>
<path d="M6630 18995 l0 -215 40 0 40 0 0 215 0 215 -40 0 -40 0 0 -215z"/>
<path d="M8560 18995 l0 -215 103 0 c56 0 119 5 139 10 85 24 117 123 59 181
-16 16 -37 29 -45 29 -9 0 -16 5 -16 10 0 6 6 10 13 10 26 0 57 45 57 84 0 86
-37 106 -195 106 l-115 0 0 -215z m211 129 c44 -39 -2 -94 -77 -94 l-44 0 0
61 0 62 51 -6 c29 -4 60 -14 70 -23z m13 -173 c25 -27 17 -72 -14 -88 -14 -7
-46 -13 -72 -13 l-48 0 0 60 0 60 58 0 c45 0 63 -4 76 -19z"/>
<path d="M9660 18995 l0 -215 40 0 40 0 0 46 c0 44 13 84 28 84 4 0 27 -29 51
-65 l44 -65 49 0 c37 0 47 3 42 13 -4 6 -32 46 -61 88 -29 42 -53 80 -53 84 0
4 25 36 55 70 30 35 55 66 55 69 0 3 -20 6 -44 6 -43 0 -47 -3 -99 -64 -30
-36 -58 -62 -61 -59 -3 4 -6 55 -6 115 l0 108 -40 0 -40 0 0 -215z"/>
<path d="M6338 19089 c-92 -48 -106 -203 -24 -279 49 -45 182 -38 223 12 24
28 19 42 -17 48 -25 4 -40 0 -52 -12 -36 -36 -107 -13 -123 39 -6 22 -5 22
107 25 l113 3 -3 40 c-6 64 -29 102 -76 125 -53 25 -100 25 -148 -1z m116 -60
c14 -11 26 -29 26 -40 0 -17 -7 -19 -63 -19 -35 0 -67 3 -70 6 -9 10 24 63 42
67 31 9 39 7 65 -14z"/>
<path d="M6858 19089 c-92 -48 -106 -203 -24 -279 40 -36 138 -41 186 -8 36
24 65 68 52 79 -4 4 -21 9 -38 12 -26 5 -33 2 -42 -18 -25 -55 -102 -36 -121
29 -10 38 -1 97 19 121 20 24 76 19 98 -10 16 -20 25 -23 56 -18 20 3 36 9 36
13 0 4 -10 22 -23 41 -38 57 -130 75 -199 38z"/>
<path d="M7213 19089 c-103 -51 -110 -229 -11 -289 40 -24 126 -27 168 -5 58
30 90 121 70 197 -27 102 -129 146 -227 97z m123 -70 c14 -16 19 -36 19 -81 0
-51 -4 -63 -24 -79 -31 -26 -57 -24 -86 6 -38 37 -32 140 9 167 21 15 63 8 82
-13z"/>
<path d="M7517 19103 c-4 -3 -7 -78 -7 -165 l0 -158 45 0 45 0 0 113 c0 98 3
116 18 130 26 23 58 21 76 -5 12 -17 16 -49 16 -130 l0 -108 40 0 40 0 0 113
c0 98 3 116 18 130 24 22 55 21 75 -1 14 -15 17 -40 17 -130 l0 -112 40 0 40
0 0 136 0 136 -30 30 c-28 28 -36 30 -78 25 -36 -4 -53 -12 -74 -36 -15 -17
-28 -27 -28 -21 0 6 -11 22 -25 35 -32 32 -75 32 -113 0 -17 -14 -33 -25 -36
-25 -3 0 -6 11 -6 25 0 22 -4 25 -33 25 -19 0 -37 -3 -40 -7z"/>
<path d="M8128 19089 c-92 -48 -106 -203 -24 -279 49 -45 182 -38 223 12 24
28 19 42 -17 48 -25 4 -40 0 -52 -12 -36 -36 -107 -13 -123 39 -6 22 -5 22
107 25 l113 3 -3 40 c-6 64 -29 102 -76 125 -53 25 -100 25 -148 -1z m116 -60
c14 -11 26 -29 26 -40 0 -17 -7 -19 -63 -19 -35 0 -67 3 -70 6 -9 10 24 63 42
67 31 9 39 7 65 -14z"/>
<path d="M9033 19103 c-24 -5 -83 -55 -83 -71 0 -5 16 -12 36 -15 28 -5 43 -1
65 15 38 28 84 16 84 -22 0 -25 -14 -32 -97 -45 -52 -8 -98 -49 -98 -87 0 -33
16 -67 39 -85 26 -20 105 -16 134 7 14 11 28 20 31 20 3 0 6 -9 6 -20 0 -17 7
-20 40 -20 l40 0 0 115 c0 143 -11 175 -69 198 -40 16 -80 19 -128 10z m107
-201 c0 -49 -57 -83 -96 -57 -42 27 -25 60 39 75 53 13 57 12 57 -18z"/>
<path d="M9373 19089 c-103 -51 -110 -229 -11 -289 40 -24 125 -27 167 -6 25
13 71 80 61 89 -3 2 -22 7 -42 10 -29 4 -38 2 -38 -8 0 -17 -38 -45 -63 -45
-10 0 -29 11 -42 25 -38 37 -32 140 9 167 24 16 65 8 84 -17 16 -20 25 -23 56
-18 31 5 36 9 30 27 -10 34 -45 65 -83 76 -53 15 -81 12 -128 -11z"/>
<path d="M1480 19020 c0 -33 -2 -60 -5 -60 -3 0 -17 7 -31 16 -36 24 -100 13
-137 -24 -54 -55 -44 -175 19 -217 30 -19 94 -19 120 0 25 19 34 19 34 0 0
-10 11 -15 35 -15 l35 0 0 180 0 180 -35 0 -35 0 0 -60z m-29 -109 c28 -23 30
-82 3 -112 -47 -53 -129 9 -103 79 19 52 60 66 100 33z"/>
<path d="M4270 18999 c0 -38 24 -35 28 4 2 19 -1 27 -12 27 -11 0 -16 -10 -16
-31z"/>
<path d="M861 18972 c-73 -36 -97 -120 -56 -189 68 -116 265 -68 265 65 0 109
-111 175 -209 124z m122 -74 c20 -24 22 -50 6 -81 -16 -29 -28 -37 -61 -37
-38 0 -68 32 -68 73 0 37 7 49 35 65 26 15 66 6 88 -20z"/>
<path d="M1100 18855 l0 -135 35 0 35 0 1 53 c0 80 18 120 57 132 29 8 32 13
32 47 0 47 -21 51 -62 11 l-28 -27 0 27 c0 24 -4 27 -35 27 l-35 0 0 -135z"/>
<path d="M1616 18969 c-53 -46 -32 -116 43 -140 63 -20 79 -44 37 -55 -13 -3
-39 1 -59 9 -34 15 -36 14 -51 -7 -14 -22 -13 -24 20 -40 46 -21 127 -21 149
1 53 53 36 108 -45 140 -64 25 -79 53 -30 53 17 0 40 -4 50 -10 14 -8 21 -5
34 15 16 25 16 26 -11 36 -15 6 -46 13 -69 16 -32 4 -46 1 -68 -18z"/>
<path d="M1811 18938 c93 -233 95 -244 50 -235 -24 5 -30 2 -40 -20 -10 -21
-9 -28 1 -34 23 -15 85 -10 107 9 20 16 131 285 131 318 0 9 -11 14 -34 14
-35 0 -35 0 -62 -85 -16 -47 -31 -85 -34 -85 -3 0 -19 38 -35 85 l-30 85 -37
0 -38 0 21 -52z"/>
<path d="M2090 18855 l0 -135 35 0 35 0 0 88 c0 96 7 112 52 112 37 0 48 -28
48 -126 l0 -74 35 0 35 0 0 101 c0 100 -8 132 -39 156 -22 17 -73 16 -97 -2
-25 -19 -34 -19 -34 0 0 10 -11 15 -35 15 l-35 0 0 -135z"/>
<path d="M2424 18971 c-38 -23 -64 -76 -64 -130 0 -101 132 -161 220 -99 24
18 24 18 4 38 -17 17 -24 18 -50 8 -58 -22 -104 12 -104 76 0 45 65 78 104 52
22 -14 25 -13 46 9 l22 24 -33 20 c-43 26 -104 27 -145 2z"/>
<path d="M4160 18971 c0 -11 9 -25 20 -31 17 -9 20 -8 20 9 0 11 -9 25 -20 31
-17 9 -20 8 -20 -9z"/>
<path d="M4370 18965 c-19 -23 -1 -39 21 -19 10 9 19 21 19 26 0 13 -27 9 -40
-7z"/>
<path d="M4229 18911 c-26 -27 -30 -37 -25 -64 13 -65 85 -89 131 -42 47 46
23 118 -42 131 -27 5 -37 1 -64 -25z m81 -19 c31 -25 21 -69 -17 -78 -20 -5
-31 -2 -45 16 -23 28 -23 35 2 60 25 25 32 25 60 2z"/>
<path d="M10170 18923 c0 -17 65 -83 81 -83 8 0 4 8 -11 20 -14 10 -35 31 -47
47 -13 15 -23 23 -23 16z"/>
<path d="M10120 18912 c0 -19 90 -112 109 -112 11 0 8 5 -9 17 -23 16 -53 48
-87 92 -9 11 -12 12 -13 3z"/>
<path d="M4110 18854 c0 -11 8 -14 27 -12 39 4 42 28 4 28 -21 0 -31 -5 -31
-16z"/>
<path d="M4395 18860 c-8 -12 17 -23 41 -18 10 1 19 9 22 16 5 15 -54 17 -63
2z"/>
<path d="M2630 18760 c0 -39 1 -40 35 -40 34 0 35 1 35 40 0 39 -1 40 -35 40
-34 0 -35 -1 -35 -40z"/>
<path d="M10601 18776 c-6 -8 -25 -19 -42 -26 -16 -7 -28 -15 -25 -17 6 -7 60
23 75 41 8 9 11 16 8 16 -2 0 -10 -6 -16 -14z"/>
<path d="M4172 18768 c-14 -14 -16 -38 -4 -38 12 0 32 23 32 37 0 16 -12 17
-28 1z"/>
<path d="M4362 18764 c4 -20 34 -41 45 -31 10 11 -11 41 -31 45 -12 3 -17 -2
-14 -14z"/>
<path d="M4277 18744 c-4 -4 -7 -20 -7 -36 0 -35 23 -34 28 1 4 25 -10 46 -21
35z"/>
<path d="M6046 18381 c-4 -5 -2 -12 3 -15 5 -4 12 -2 15 3 4 5 2 12 -3 15 -5
4 -12 2 -15 -3z"/>
<path d="M5692 18360 c-67 -63 -22 -184 66 -178 21 1 37 -3 40 -10 2 -7 8 -12
13 -12 6 0 6 7 0 18 -6 12 -5 25 5 42 23 42 18 107 -11 135 -30 31 -82 33
-113 5z m82 -2 c29 -13 47 -60 39 -102 -6 -31 -21 -42 -36 -27 -6 6 -15 11
-21 11 -6 0 -5 -5 2 -12 19 -19 14 -28 -13 -28 -36 0 -65 33 -65 76 0 53 18
78 67 93 1 1 14 -4 27 -11z"/>
<path d="M6270 18280 c0 -60 4 -100 10 -100 6 0 10 13 10 29 0 46 20 49 53 8
16 -21 33 -37 39 -37 5 0 -4 18 -21 39 -37 47 -38 51 -6 81 14 13 23 26 20 29
-3 2 -23 -13 -45 -34 l-40 -39 0 62 c0 35 -4 62 -10 62 -6 0 -10 -40 -10 -100z"/>
<path d="M6514 18280 c0 -58 1 -81 3 -52 2 28 2 76 0 105 -2 28 -3 5 -3 -53z"/>
<path d="M6570 18370 c0 -5 5 -10 10 -10 6 0 10 5 10 10 0 6 -4 10 -10 10 -5
0 -10 -4 -10 -10z"/>
<path d="M6813 18280 c0 -58 2 -90 6 -71 8 47 24 49 56 7 29 -39 58 -51 31
-13 -53 74 -52 65 -21 97 16 17 24 30 19 30 -6 0 -23 -13 -39 -30 -16 -16 -32
-30 -36 -30 -5 0 -10 26 -12 58 -2 31 -3 10 -4 -48z"/>
<path d="M9449 18343 c-3 -98 -1 -132 9 -149 9 -15 11 4 12 84 0 61 -4 102
-10 102 -5 0 -10 -17 -11 -37z"/>
<path d="M7190 18350 c0 -11 -5 -20 -12 -20 -9 0 -9 -3 0 -12 7 -7 12 -35 12
-63 0 -28 5 -56 12 -63 15 -15 38 -16 38 -2 0 6 -7 10 -15 10 -24 0 -21 117 3
123 16 4 16 5 0 6 -11 1 -18 9 -18 21 0 11 -4 20 -10 20 -5 0 -10 -9 -10 -20z"/>
<path d="M7860 18350 c0 -11 -5 -20 -12 -20 -9 0 -9 -3 0 -12 7 -7 12 -35 12
-63 0 -28 5 -56 12 -63 15 -15 38 -16 38 -2 0 6 -7 10 -15 10 -23 0 -21 105 3
119 16 10 16 10 0 11 -11 0 -18 8 -18 20 0 11 -4 20 -10 20 -5 0 -10 -9 -10
-20z"/>
<path d="M8745 18353 c-4 -13 -12 -23 -19 -23 -8 0 -8 -2 0 -8 6 -4 13 -33 16
-65 5 -58 17 -77 48 -76 10 0 8 5 -7 16 -30 20 -33 106 -5 122 15 9 16 10 0
11 -9 0 -19 10 -21 23 l-4 22 -8 -22z"/>
<path d="M9105 18353 c-4 -13 -12 -23 -19 -23 -8 0 -8 -2 0 -8 6 -4 13 -33 16
-65 5 -58 17 -77 48 -76 10 0 8 5 -7 16 -30 20 -33 106 -5 122 15 9 16 10 0
11 -9 0 -19 10 -21 23 l-4 22 -8 -22z"/>
<path d="M5882 18268 c3 -56 6 -64 30 -77 24 -14 28 -14 46 3 19 17 20 17 25
-1 3 -10 5 18 4 62 0 76 0 77 -6 23 -7 -65 -18 -81 -52 -76 -22 3 -24 8 -27
66 -2 34 -7 62 -13 62 -6 0 -9 -25 -7 -62z"/>
<path d="M6053 18255 c0 -44 2 -61 4 -37 2 23 2 59 0 80 -2 20 -4 1 -4 -43z"/>
<path d="M6127 18312 c-38 -41 -9 -132 42 -132 20 0 74 39 54 40 -6 0 -15 -4
-18 -10 -3 -5 -19 -10 -34 -10 -22 0 -31 7 -40 28 -23 55 23 109 66 76 27 -20
39 -17 18 6 -23 25 -67 26 -88 2z"/>
<path d="M6570 18255 c0 -43 4 -75 10 -75 6 0 10 32 10 75 0 43 -4 75 -10 75
-6 0 -10 -32 -10 -75z"/>
<path d="M6640 18255 c0 -43 4 -75 10 -75 6 0 10 32 10 75 0 43 -4 75 -10 75
-6 0 -10 -32 -10 -75z"/>
<path d="M6674 18319 c-4 -7 0 -9 12 -5 34 10 49 -10 55 -76 l6 -63 1 66 c1
39 -3 70 -10 77 -15 15 -55 16 -64 1z"/>
<path d="M6972 18318 c-25 -25 -13 -48 34 -68 26 -12 44 -25 42 -33 -6 -17
-56 -21 -75 -5 -14 11 -15 11 -12 -1 15 -46 92 -37 97 11 3 24 -2 28 -37 39
-28 8 -41 18 -41 30 0 22 26 32 50 19 27 -14 34 -12 20 5 -15 18 -61 20 -78 3z"/>
<path d="M7290 18308 c-41 -44 -10 -128 47 -128 26 0 63 44 63 75 0 32 -37 75
-65 75 -13 0 -33 -10 -45 -22z m88 -47 c2 -18 -2 -39 -9 -47 -14 -17 -51 -18
-67 -2 -13 13 -16 67 -4 84 24 36 75 13 80 -35z"/>
<path d="M7537 18312 c-23 -25 -22 -85 1 -105 22 -20 53 -22 70 -5 18 18 27 1
16 -30 -11 -30 -55 -42 -80 -21 -10 8 -14 8 -14 0 0 -21 49 -32 78 -18 26 12
27 15 30 107 1 64 -1 90 -7 80 -8 -12 -13 -12 -23 -2 -18 18 -52 15 -71 -6z
m63 -2 c42 -23 27 -110 -20 -110 -46 0 -62 86 -21 110 20 12 19 12 41 0z"/>
<path d="M7707 18312 c-26 -28 -22 -97 5 -116 27 -19 59 -21 76 -4 17 17 15
33 -2 19 -24 -20 -70 -10 -74 17 -3 20 0 22 47 22 47 0 51 2 51 23 0 50 -70
76 -103 39z m64 -2 c10 -6 19 -20 19 -30 0 -17 -7 -20 -39 -20 -48 0 -58 13
-31 40 23 23 25 23 51 10z"/>
<path d="M8023 18313 c3 -10 16 -46 29 -81 l23 -63 -24 -20 c-16 -13 -18 -19
-8 -19 8 0 20 6 26 14 19 22 80 187 69 184 -6 -2 -20 -30 -32 -61 -11 -31 -23
-57 -26 -57 -4 0 -15 27 -25 60 -10 33 -22 60 -28 60 -5 0 -7 -8 -4 -17z"/>
<path d="M8195 18310 c-27 -30 -25 -88 4 -111 49 -40 101 -11 101 55 0 70 -63
103 -105 56z m86 -28 c15 -40 -6 -82 -42 -82 -48 0 -66 63 -30 99 25 25 59 17
72 -17z"/>
<path d="M8351 18267 c-1 -63 1 -68 24 -79 19 -9 29 -8 49 5 23 15 25 15 29
-1 3 -9 5 19 5 63 -1 78 -1 79 -8 24 -9 -69 -15 -79 -45 -79 -30 0 -36 10 -45
79 l-7 56 -2 -68z"/>
<path d="M8602 18318 c-25 -25 -13 -48 34 -68 26 -12 44 -25 42 -33 -6 -17
-56 -21 -75 -5 -14 11 -15 11 -12 -1 15 -46 92 -37 97 11 3 24 -2 28 -37 39
-28 8 -41 18 -41 30 0 22 26 32 50 19 27 -14 34 -12 20 5 -15 18 -61 20 -78 3z"/>
<path d="M8844 18315 c-23 -17 -14 -19 20 -4 20 9 29 9 41 -1 26 -21 17 -38
-25 -45 -52 -9 -67 -34 -41 -67 17 -21 22 -22 50 -11 17 6 31 7 31 2 0 -5 5
-9 10 -9 17 0 12 116 -6 134 -19 20 -54 20 -80 1z m76 -80 c0 -30 -35 -48 -62
-33 -28 14 -21 37 15 47 47 13 47 13 47 -14z"/>
<path d="M8990 18255 c0 -91 18 -101 22 -12 3 56 5 62 26 65 12 2 22 8 22 13
0 13 -24 11 -38 -3 -9 -9 -12 -9 -12 0 0 7 -4 12 -10 12 -6 0 -10 -32 -10 -75z"/>
<path d="M9201 18304 c-12 -15 -21 -37 -21 -49 0 -30 37 -75 61 -75 27 0 59
18 59 32 0 9 -3 9 -12 0 -26 -26 -88 -8 -88 25 0 9 17 13 55 13 58 0 63 6 44
43 -24 45 -67 50 -98 11z m84 -25 c0 -18 -63 -25 -79 -9 -8 8 -5 16 13 31 21
17 26 18 45 6 12 -8 21 -21 21 -28z"/>
<path d="M9373 18322 c-18 -12 -34 -61 -27 -87 10 -38 39 -59 71 -49 l28 8
-30 4 c-16 2 -36 11 -42 20 -31 39 3 106 48 95 15 -4 20 -3 15 5 -8 13 -45 16
-63 4z"/>
<path d="M295 17705 c-51 -18 -110 -81 -124 -131 -14 -51 -14 -378 0 -429 15
-52 82 -119 134 -134 57 -16 4333 -16 4390 0 52 15 119 82 134 134 14 52 14
378 0 430 -15 52 -82 119 -134 134 -29 8 -647 11 -2200 11 -1836 -1 -2166 -3
-2200 -15z m385 -285 c32 -63 41 -145 18 -168 -8 -8 -55 -12 -144 -12 -149 0
-144 -3 -144 81 0 46 23 110 52 147 7 8 40 12 99 12 l89 0 30 -60z m258 2 l3
-42 44 0 44 0 3 42 c2 31 8 44 21 46 15 3 17 -7 17 -102 0 -99 -1 -106 -20
-106 -17 0 -20 7 -20 45 l0 45 -45 0 -45 0 0 -45 c0 -38 -3 -45 -20 -45 -19 0
-20 7 -20 106 0 95 2 105 18 102 12 -2 18 -15 20 -46z m278 -26 c56 -48 25
-139 -47 -139 -65 0 -94 89 -44 138 30 31 56 32 91 1z m89 14 c4 -6 13 -5 25
3 16 9 24 9 40 -1 15 -9 26 -10 40 -2 27 14 37 13 60 -10 16 -16 20 -33 20
-80 0 -53 -2 -60 -20 -60 -18 0 -20 7 -20 59 0 39 -4 61 -12 64 -29 10 -38 -6
-38 -64 0 -52 -2 -59 -20 -59 -18 0 -20 7 -20 59 0 41 -4 60 -14 64 -23 9 -36
-15 -36 -70 0 -46 -3 -53 -20 -53 -18 0 -20 7 -20 73 0 41 3 77 7 80 9 10 21
9 28 -3z m329 -11 c17 -14 26 -30 26 -50 0 -28 -1 -29 -51 -29 -36 0 -49 -4
-46 -12 3 -9 21 -12 50 -11 37 2 45 0 41 -11 -8 -22 -60 -37 -89 -26 -50 19
-61 95 -20 135 30 30 54 31 89 4z"/>
<path d="M475 17420 c-20 -38 -19 -40 8 -40 13 0 32 -9 42 -20 10 -11 26 -20
35 -20 9 0 25 9 35 20 10 11 29 20 42 20 27 0 28 2 8 40 -15 29 -18 30 -85 30
-67 0 -70 -1 -85 -30z"/>
<path d="M440 17305 l0 -36 118 3 117 3 3 33 c3 29 1 32 -26 32 -16 0 -37 -9
-47 -20 -10 -11 -30 -20 -45 -20 -15 0 -35 9 -45 20 -10 11 -31 20 -47 20 -25
0 -28 -3 -28 -35z"/>
<path d="M1157 17377 c-20 -17 -26 -38 -16 -64 11 -30 55 -31 64 -2 15 47 -17
91 -48 66z"/>
<path d="M1572 17378 c-19 -19 -14 -28 18 -28 32 0 42 23 14 34 -20 8 -18 8
-32 -6z"/>
<path d="M6109 17178 c-63 -23 -77 -93 -29 -148 34 -40 41 -22 10 25 -26 39
-25 51 5 80 41 42 91 27 110 -33 4 -15 0 -30 -14 -48 -21 -27 -28 -54 -13 -54
14 1 52 72 52 99 0 33 -39 77 -74 83 -12 3 -34 1 -47 -4z"/>
<path d="M8588 17179 c-12 -7 -18 -22 -18 -49 0 -33 -3 -40 -20 -40 -26 0 -40
-36 -40 -106 0 -85 15 -94 150 -94 97 0 112 2 130 20 18 18 20 33 20 130 0
144 -5 150 -122 150 -46 0 -91 -5 -100 -11z m192 -139 l0 -120 -95 0 -95 0 0
120 0 120 95 0 95 0 0 -120z m-210 -45 c0 -60 -3 -75 -15 -75 -12 0 -15 14
-15 68 0 38 3 72 7 75 17 18 23 1 23 -68z"/>
<path d="M8622 17093 l3 -38 60 0 60 0 3 38 3 37 -66 0 -66 0 3 -37z m108 2
c0 -11 -11 -15 -40 -15 -29 0 -40 4 -40 15 0 11 11 15 40 15 29 0 40 -4 40
-15z"/>
<path d="M8627 17023 c-17 -17 -2 -23 58 -23 51 0 65 3 65 15 0 12 -13 15 -58
15 -32 0 -62 -3 -65 -7z"/>
<path d="M8620 16960 c0 -5 20 -10 45 -10 25 0 45 5 45 10 0 6 -20 10 -45 10
-25 0 -45 -4 -45 -10z"/>
<path d="M10854 17157 c-3 -8 -3 -56 -2 -108 l3 -94 57 -3 c46 -2 61 -7 73
-25 l16 -22 17 22 c13 17 29 23 72 25 l55 3 0 105 0 105 -58 3 c-33 2 -65 -2
-72 -8 -10 -8 -19 -8 -34 -1 -29 16 -120 14 -127 -2z m126 -33 c6 -14 10 -54
10 -90 l0 -64 -55 0 -55 0 0 90 0 90 45 0 c40 0 47 -3 55 -26z m140 -64 l0
-90 -56 0 -55 0 2 80 c2 90 8 99 72 100 l37 0 0 -90z"/>
<path d="M10910 17096 c0 -11 9 -16 26 -16 31 0 28 23 -4 28 -15 2 -22 -2 -22
-12z"/>
<path d="M10910 17040 c0 -5 11 -10 25 -10 14 0 25 5 25 10 0 6 -11 10 -25 10
-14 0 -25 -4 -25 -10z"/>
<path d="M11047 17103 c-14 -13 -6 -23 18 -23 16 0 25 6 25 15 0 15 -31 21
-43 8z"/>
<path d="M11040 17040 c0 -5 11 -10 25 -10 14 0 25 5 25 10 0 6 -11 10 -25 10
-14 0 -25 -4 -25 -10z"/>
<path d="M6775 17140 c-3 -6 1 -13 10 -16 19 -8 30 0 20 15 -8 14 -22 14 -30
1z"/>
<path d="M7027 17120 c-6 -16 -17 -30 -24 -30 -7 0 -13 -4 -13 -10 0 -5 7 -10
15 -10 12 0 15 -14 15 -65 0 -51 3 -65 15 -65 12 0 15 14 15 65 0 58 2 65 20
65 11 0 20 5 20 10 0 6 -9 10 -20 10 -11 0 -20 6 -20 14 0 8 9 18 20 21 28 9
25 25 -6 25 -19 0 -28 -7 -37 -30z"/>
<path d="M7120 17135 c0 -8 7 -15 15 -15 8 0 15 7 15 15 0 8 -7 15 -15 15 -8
0 -15 -7 -15 -15z"/>
<path d="M9410 17135 c0 -8 7 -15 15 -15 8 0 15 7 15 15 0 8 -7 15 -15 15 -8
0 -15 -7 -15 -15z"/>
<path d="M6480 17040 l0 -100 55 0 c82 0 120 45 76 89 -17 17 -18 21 -5 32 19
15 18 44 -2 63 -10 11 -34 16 -70 16 l-54 0 0 -100z m100 65 c20 -24 4 -45
-35 -45 -30 0 -35 3 -35 23 0 13 3 27 7 30 12 12 50 7 63 -8z m10 -90 c21 -26
4 -45 -40 -45 -38 0 -40 2 -40 30 0 27 3 30 34 30 18 0 39 -7 46 -15z"/>
<path d="M9051 17118 c-22 -59 -61 -170 -61 -174 0 -2 7 -4 15 -4 9 0 20 11
25 25 8 21 16 25 50 25 34 0 42 -4 50 -25 5 -14 16 -25 25 -25 8 0 15 2 15 4
0 4 -43 121 -62 169 -13 33 -45 36 -57 5z m45 -59 l12 -39 -30 0 c-25 0 -29 3
-23 18 3 9 9 30 12 45 7 34 14 28 29 -24z"/>
<path d="M9640 17040 c0 -82 3 -100 15 -100 12 0 15 18 15 100 0 82 -3 100
-15 100 -12 0 -15 -18 -15 -100z"/>
<path d="M11350 17040 c0 -82 3 -100 15 -100 10 0 15 11 15 35 0 33 2 35 33
35 22 0 41 8 55 23 26 27 28 54 6 85 -12 18 -25 22 -70 22 l-54 0 0 -100z m91
70 c39 -21 16 -70 -33 -70 -26 0 -28 3 -28 40 0 34 3 40 21 40 11 0 29 -5 40
-10z"/>
<path d="M9320 17115 c0 -7 -8 -18 -17 -24 -17 -9 -17 -11 -1 -23 12 -9 18
-30 20 -68 3 -52 5 -55 31 -58 32 -4 34 1 7 28 -13 13 -20 33 -20 56 0 27 5
37 20 41 24 6 27 23 4 23 -9 0 -18 9 -21 20 -6 23 -23 27 -23 5z"/>
<path d="M6670 17015 c0 -60 3 -75 15 -75 12 0 15 13 15 60 0 55 2 60 25 66
14 3 25 10 25 15 0 13 -34 11 -48 -3 -9 -9 -12 -9 -12 0 0 7 -4 12 -10 12 -6
0 -10 -32 -10 -75z"/>
<path d="M6780 17015 c0 -60 3 -75 15 -75 12 0 15 15 15 75 0 60 -3 75 -15 75
-12 0 -15 -15 -15 -75z"/>
<path d="M6856 17068 c-22 -31 -20 -80 4 -106 24 -26 81 -30 100 -7 18 22 4
31 -24 16 -27 -15 -66 -1 -66 24 0 11 13 15 56 15 47 0 55 3 50 16 -3 9 -6 19
-6 24 0 19 -34 40 -65 40 -24 0 -39 -7 -49 -22z m84 -18 c10 -18 8 -20 -30
-20 -41 0 -49 7 -28 28 18 18 46 14 58 -8z"/>
<path d="M7120 17015 c0 -60 3 -75 15 -75 12 0 15 15 15 75 0 60 -3 75 -15 75
-12 0 -15 -15 -15 -75z"/>
<path d="M7190 17014 c0 -58 3 -74 15 -74 10 0 15 15 17 56 6 104 68 96 68 -8
0 -36 4 -48 15 -48 19 0 21 83 2 120 -11 21 -20 25 -65 27 l-52 1 0 -74z"/>
<path d="M7366 17068 c-22 -31 -20 -84 4 -108 22 -22 42 -25 71 -10 16 9 19 7
19 -9 0 -29 -33 -44 -64 -29 -32 14 -48 1 -22 -18 28 -20 73 -17 96 6 17 17
20 33 20 105 0 69 -3 85 -15 85 -8 0 -15 -5 -15 -12 0 -9 -3 -9 -12 0 -20 20
-65 14 -82 -10z m78 -14 c27 -27 12 -84 -22 -84 -55 0 -55 97 0 100 4 0 14 -7
22 -16z"/>
<path d="M7542 17078 c-7 -7 -12 -22 -12 -35 0 -17 9 -25 40 -34 40 -12 53
-35 25 -45 -8 -4 -22 -1 -30 6 -8 6 -22 10 -31 8 -31 -6 12 -38 50 -38 66 0
78 66 16 86 -38 13 -54 44 -23 44 11 0 24 -5 30 -11 17 -17 37 -1 22 17 -14
17 -71 18 -87 2z"/>
<path d="M9200 17014 c0 -58 3 -74 15 -74 10 0 15 15 17 58 3 48 7 59 26 67
33 15 27 24 -18 23 l-40 0 0 -74z"/>
<path d="M9410 17015 c0 -60 3 -75 15 -75 12 0 15 15 15 75 0 60 -3 75 -15 75
-12 0 -15 -15 -15 -75z"/>
<path d="M9491 17064 c-12 -15 -21 -37 -21 -49 0 -33 37 -75 66 -75 33 0 64
17 64 35 0 20 -9 19 -32 -2 -32 -29 -76 12 -64 60 8 33 41 44 66 22 22 -20 39
-2 20 20 -21 25 -76 19 -99 -11z"/>
<path d="M9725 17070 c-11 -12 -19 -36 -19 -55 0 -19 8 -43 19 -55 24 -26 76
-27 100 0 20 22 9 26 -29 9 -20 -9 -29 -9 -41 1 -30 25 -18 40 35 40 41 0 50
3 50 18 0 56 -77 84 -115 42z m73 -12 c20 -20 14 -28 -23 -28 -24 0 -35 5 -35
14 0 24 39 33 58 14z"/>
<path d="M9878 17065 c-14 -30 -3 -44 44 -61 18 -6 33 -15 35 -21 6 -18 -34
-25 -56 -11 -25 15 -39 4 -21 -17 16 -20 74 -19 94 1 30 29 14 58 -40 73 -15
4 -29 12 -32 19 -6 18 28 27 49 14 24 -15 29 -15 29 2 0 17 -22 26 -61 26 -22
0 -32 -7 -41 -25z"/>
<path d="M11531 17076 c-16 -20 3 -30 27 -15 23 15 52 6 52 -16 0 -10 -10 -15
-30 -15 -37 0 -70 -31 -63 -59 6 -24 22 -30 81 -29 l42 1 0 61 c0 35 -5 67
-12 74 -17 17 -83 15 -97 -2z m79 -79 c0 -18 -21 -37 -41 -37 -24 0 -32 27
-11 39 24 15 52 13 52 -2z"/>
<path d="M11697 17072 c-24 -26 -22 -87 4 -113 20 -20 32 -21 72 -4 12 5 17 2
17 -8 0 -24 -30 -49 -49 -41 -35 14 -51 16 -51 6 0 -30 72 -41 105 -16 17 12
21 29 23 104 3 77 2 90 -12 90 -9 0 -16 -5 -16 -12 0 -9 -3 -9 -12 0 -18 18
-63 14 -81 -6z m79 -31 c16 -31 3 -65 -26 -69 -26 -4 -40 12 -40 49 0 50 44
64 66 20z"/>
<path d="M11866 17068 c-22 -31 -20 -80 4 -106 24 -26 81 -30 100 -7 18 22 4
31 -24 16 -27 -15 -66 -1 -66 24 0 11 13 15 56 15 47 0 55 3 50 16 -3 9 -6 19
-6 24 0 19 -34 40 -65 40 -24 0 -39 -7 -49 -22z m84 -18 c10 -18 8 -20 -30
-20 -41 0 -49 7 -28 28 18 18 46 14 58 -8z"/>
<path d="M12030 17075 c-24 -29 -7 -54 54 -75 27 -10 28 -12 13 -27 -14 -15
-20 -15 -42 -3 -29 16 -44 7 -25 -15 21 -25 77 -19 96 10 20 31 7 51 -39 63
-17 4 -32 13 -35 20 -6 18 28 27 50 13 25 -15 35 -7 18 14 -16 19 -74 20 -90
0z"/>
<path d="M6090 16960 c0 -5 23 -10 50 -10 28 0 50 5 50 10 0 6 -22 10 -50 10
-27 0 -50 -4 -50 -10z"/>
<path d="M6103 16908 c2 -7 19 -13 37 -13 18 0 35 6 38 13 2 8 -9 12 -38 12
-29 0 -40 -4 -37 -12z"/>
<path d="M2172 16611 c4 -13 18 -16 19 -4 0 4 -5 9 -11 12 -7 2 -11 -2 -8 -8z"/>
<path d="M279 16589 c-30 -30 -24 -105 13 -132 18 -13 34 -18 51 -13 31 7 65
38 48 44 -6 2 -18 -4 -27 -12 -21 -21 -40 -20 -64 4 -39 39 -15 110 39 110 12
0 24 -7 27 -15 6 -16 34 -21 34 -7 0 5 -8 16 -18 25 -26 23 -78 21 -103 -4z"/>
<path d="M1261 16584 c-64 -81 33 -191 104 -119 36 35 33 65 -5 65 -16 0 -30
-4 -30 -10 0 -5 7 -10 15 -10 22 0 18 -28 -6 -40 -34 -19 -69 11 -69 58 0 21
5 43 12 50 17 17 53 15 68 -3 14 -17 30 -20 30 -6 0 20 -33 41 -65 41 -24 0
-39 -7 -54 -26z"/>
<path d="M729 16583 c-7 -82 12 -143 43 -143 21 1 22 2 6 14 -21 16 -25 91 -5
100 10 5 10 7 0 12 -7 3 -13 12 -13 20 0 20 -30 17 -31 -3z"/>
<path d="M1099 16583 c-7 -82 12 -143 43 -143 21 1 22 2 6 14 -21 16 -25 91
-5 100 10 5 10 7 0 12 -7 3 -13 12 -13 20 0 20 -30 17 -31 -3z"/>
<path d="M2090 16586 c0 -8 -6 -17 -12 -19 -10 -4 -10 -7 -1 -14 6 -5 13 -28
15 -52 2 -28 9 -48 20 -55 24 -14 34 -1 14 19 -21 21 -21 71 0 83 15 8 15 11
-5 31 -25 25 -31 26 -31 7z"/>
<path d="M464 16562 c-26 -17 -36 -53 -24 -83 30 -72 123 -31 104 47 -9 36
-52 55 -80 36z m55 -34 c12 -33 -2 -63 -30 -63 -19 0 -25 6 -27 28 -2 16 -1
35 2 43 9 22 46 17 55 -8z"/>
<path d="M580 16505 c0 -51 3 -65 15 -65 11 0 15 12 15 50 0 38 4 52 16 57 24
9 44 -23 44 -69 0 -21 5 -38 10 -38 6 0 10 22 10 49 0 67 -34 101 -69 69 -11
-10 -14 -10 -18 0 -12 32 -23 6 -23 -53z"/>
<path d="M827 16552 c-47 -52 3 -130 67 -106 28 11 17 24 -15 17 -21 -4 -34
-1 -40 8 -15 25 -10 29 36 29 37 0 45 3 45 18 0 24 -31 52 -57 52 -11 0 -27
-8 -36 -18z m66 -16 c7 -18 -1 -26 -28 -26 -12 0 -24 3 -28 6 -12 12 6 34 28
34 13 0 25 -6 28 -14z"/>
<path d="M960 16505 c0 -37 4 -65 10 -65 6 0 10 23 10 50 0 36 4 52 15 56 26
10 45 -16 45 -62 0 -24 5 -44 10 -44 7 0 10 22 8 56 -3 66 -23 88 -58 66 -12
-7 -20 -8 -20 -2 0 5 -4 10 -10 10 -6 0 -10 -28 -10 -65z"/>
<path d="M1440 16550 c-11 -11 -20 -31 -20 -45 0 -29 32 -65 58 -65 10 0 27 7
38 15 18 15 17 16 -14 10 -20 -4 -38 -2 -47 5 -22 18 -8 30 36 30 31 0 39 4
39 18 0 23 -30 52 -53 52 -9 0 -26 -9 -37 -20z m65 -20 c0 -16 -28 -25 -52
-16 -12 5 -13 9 -3 22 16 18 55 15 55 -6z"/>
<path d="M1570 16505 c0 -37 4 -65 10 -65 6 0 10 19 10 43 0 51 11 70 36 65
15 -2 20 -14 22 -56 4 -69 22 -67 22 2 0 64 -17 85 -55 68 -15 -7 -25 -8 -25
-2 0 6 -4 10 -10 10 -6 0 -10 -28 -10 -65z"/>
<path d="M1730 16550 c-11 -11 -20 -31 -20 -45 0 -29 32 -65 58 -65 10 0 27 7
38 15 18 15 17 16 -14 10 -20 -4 -38 -2 -47 5 -22 18 -8 30 36 30 31 0 39 4
39 18 0 23 -30 52 -53 52 -9 0 -26 -9 -37 -20z m65 -20 c0 -16 -28 -25 -52
-16 -12 5 -13 9 -3 22 16 18 55 15 55 -6z"/>
<path d="M1860 16505 c0 -37 4 -65 10 -65 6 0 10 20 10 44 0 35 5 48 22 60 12
9 19 19 15 22 -4 4 -13 1 -22 -6 -10 -8 -15 -9 -15 -1 0 6 -4 11 -10 11 -6 0
-10 -28 -10 -65z"/>
<path d="M1964 16555 c-18 -14 -16 -15 19 -9 35 6 39 4 35 -12 -2 -12 -13 -20
-30 -22 -37 -4 -52 -25 -38 -51 12 -24 39 -27 59 -8 11 10 14 10 18 0 11 -29
23 -10 23 36 0 73 -39 102 -86 66z m56 -75 c-12 -22 -50 -27 -50 -7 0 20 10
27 37 27 21 0 22 -3 13 -20z"/>
<path d="M2170 16505 c0 -51 3 -65 15 -65 12 0 15 14 15 65 0 51 -3 65 -15 65
-12 0 -15 -14 -15 -65z"/>
<path d="M2250 16550 c-11 -11 -20 -31 -20 -45 0 -29 32 -65 58 -65 47 0 71
73 37 110 -23 25 -50 25 -75 0z m65 -45 c0 -34 -3 -40 -22 -43 -16 -2 -26 4
-34 21 -15 33 4 69 34 65 18 -2 22 -10 22 -43z"/>
<path d="M2380 16505 c0 -37 4 -65 10 -65 6 0 10 20 10 44 0 46 19 72 45 62
11 -4 15 -20 15 -56 0 -38 4 -50 15 -50 16 0 21 53 9 97 -8 28 -40 39 -61 21
-13 -10 -17 -10 -20 0 -11 32 -23 5 -23 -53z"/>
<path d="M529 15818 c-63 -23 -77 -93 -29 -148 34 -40 41 -22 10 25 -26 39
-25 51 5 80 41 42 91 27 110 -33 4 -15 0 -30 -14 -48 -21 -27 -28 -54 -13 -54
14 1 52 72 52 99 0 33 -39 77 -74 83 -12 3 -34 1 -47 -4z"/>
<path d="M1195 15780 c-3 -6 1 -13 10 -16 19 -8 30 0 20 15 -8 14 -22 14 -30
1z"/>
<path d="M1447 15760 c-6 -16 -17 -30 -24 -30 -7 0 -13 -4 -13 -10 0 -5 7 -10
15 -10 12 0 15 -14 15 -65 0 -51 3 -65 15 -65 12 0 15 14 15 65 0 58 2 65 20
65 11 0 20 5 20 10 0 6 -9 10 -20 10 -11 0 -20 6 -20 14 0 8 9 18 20 21 28 9
25 25 -6 25 -19 0 -28 -7 -37 -30z"/>
<path d="M1540 15775 c0 -8 7 -15 15 -15 8 0 15 7 15 15 0 8 -7 15 -15 15 -8
0 -15 -7 -15 -15z"/>
<path d="M900 15680 l0 -100 55 0 c82 0 120 45 76 89 -17 17 -18 21 -5 32 20
17 17 57 -5 69 -11 5 -42 10 -70 10 l-51 0 0 -100z m100 65 c20 -24 4 -45 -35
-45 -30 0 -35 3 -35 23 0 13 3 27 7 30 12 12 50 7 63 -8z m10 -90 c21 -26 4
-45 -40 -45 -38 0 -40 2 -40 30 0 27 3 30 34 30 18 0 39 -7 46 -15z"/>
<path d="M1090 15655 c0 -60 3 -75 15 -75 12 0 15 13 15 60 0 55 2 60 25 66
14 3 25 10 25 15 0 13 -34 11 -48 -3 -9 -9 -12 -9 -12 0 0 7 -4 12 -10 12 -6
0 -10 -32 -10 -75z"/>
<path d="M1200 15655 c0 -60 3 -75 15 -75 12 0 15 15 15 75 0 60 -3 75 -15 75
-12 0 -15 -15 -15 -75z"/>
<path d="M1276 15708 c-22 -31 -20 -80 4 -106 24 -26 81 -30 100 -7 18 22 4
31 -24 16 -27 -15 -66 -1 -66 24 0 11 13 15 56 15 47 0 55 3 50 16 -3 9 -6 19
-6 24 0 19 -34 40 -65 40 -24 0 -39 -7 -49 -22z m84 -18 c10 -18 8 -20 -30
-20 -41 0 -49 7 -28 28 18 18 46 14 58 -8z"/>
<path d="M1540 15655 c0 -60 3 -75 15 -75 12 0 15 15 15 75 0 60 -3 75 -15 75
-12 0 -15 -15 -15 -75z"/>
<path d="M1610 15654 c0 -58 3 -74 15 -74 10 0 15 15 17 56 6 104 68 96 68 -8
0 -36 4 -48 15 -48 19 0 21 83 2 120 -11 21 -20 25 -65 27 l-52 1 0 -74z"/>
<path d="M1786 15708 c-22 -31 -20 -84 4 -108 22 -22 42 -25 71 -10 16 9 19 7
19 -9 0 -29 -33 -44 -64 -29 -32 14 -48 1 -22 -18 28 -20 73 -17 96 6 17 17
20 33 20 105 0 69 -3 85 -15 85 -8 0 -15 -5 -15 -12 0 -9 -3 -9 -12 0 -20 20
-65 14 -82 -10z m78 -14 c27 -27 12 -84 -22 -84 -55 0 -55 97 0 100 4 0 14 -7
22 -16z"/>
<path d="M1962 15718 c-7 -7 -12 -22 -12 -35 0 -17 9 -25 40 -34 40 -12 53
-35 25 -45 -8 -4 -22 -1 -30 6 -8 6 -22 10 -31 8 -31 -6 12 -38 50 -38 66 0
78 66 16 86 -38 13 -54 44 -23 44 11 0 24 -5 30 -11 17 -17 37 -1 22 17 -14
17 -71 18 -87 2z"/>
<path d="M510 15600 c0 -5 23 -10 50 -10 28 0 50 5 50 10 0 6 -22 10 -50 10
-27 0 -50 -4 -50 -10z"/>
<path d="M523 15548 c2 -7 19 -13 37 -13 18 0 35 6 38 13 2 8 -9 12 -38 12
-29 0 -40 -4 -37 -12z"/>
<path d="M6935 15444 c-18 -18 -16 -33 7 -47 21 -14 48 -2 48 22 0 30 -34 45
-55 25z"/>
<path d="M7314 15435 c-9 -23 3 -45 25 -45 22 0 41 27 34 48 -6 17 -52 15 -59
-3z"/>
<path d="M6240 15343 c-18 -54 -46 -133 -61 -175 l-28 -78 33 0 c31 0 36 4 48
43 l15 42 65 3 66 3 14 -43 c13 -39 18 -43 50 -46 l36 -3 -62 173 -61 173 -41
3 -40 3 -34 -98z m120 -110 c0 -2 -20 -3 -45 -3 -25 0 -45 3 -45 6 0 3 10 38
22 77 l21 72 24 -75 c12 -41 23 -76 23 -77z"/>
<path d="M27810 15433 c-51 -19 -81 -83 -59 -125 18 -33 37 -46 99 -64 87 -26
112 -58 68 -88 -39 -28 -118 -13 -118 23 0 6 -15 11 -34 11 -34 0 -35 -1 -25
-29 17 -47 44 -64 109 -69 72 -5 116 10 135 49 37 70 3 118 -105 153 -54 17
-66 25 -68 45 -8 52 71 70 112 26 42 -45 83 -26 56 26 -21 39 -114 62 -170 42z"/>
<path d="M6780 15380 c0 -23 -4 -30 -20 -30 -14 0 -20 -7 -20 -21 0 -12 8 -23
20 -26 18 -5 20 -14 20 -89 0 -71 3 -87 20 -104 26 -26 106 -29 96 -4 -3 9 -6
19 -6 24 0 5 -10 10 -22 12 -21 3 -23 9 -26 81 -3 77 -3 77 23 77 20 0 25 5
25 25 0 20 -5 25 -25 25 -21 0 -25 5 -25 30 0 27 -3 30 -30 30 -27 0 -30 -3
-30 -30z"/>
<path d="M7430 15380 c0 -20 -5 -30 -15 -30 -9 0 -15 -9 -15 -25 0 -15 6 -25
14 -25 10 0 15 -22 18 -85 5 -102 20 -125 80 -125 35 0 39 2 36 23 -2 14 -11
23 -25 25 -22 3 -23 8 -23 82 0 74 1 79 23 82 14 2 23 11 25 26 3 18 -1 22
-22 22 -22 0 -26 4 -26 30 0 28 -3 30 -35 30 -32 0 -35 -2 -35 -30z"/>
<path d="M28050 15380 c0 -23 -4 -30 -20 -30 -14 0 -20 -7 -20 -21 0 -12 8
-23 20 -26 18 -5 20 -14 20 -80 0 -71 10 -110 34 -125 16 -11 86 -10 86 1 0
23 -14 41 -30 41 -24 0 -30 19 -30 96 0 62 1 64 25 64 20 0 25 5 25 25 0 20
-5 25 -25 25 -21 0 -25 5 -25 30 0 27 -3 30 -30 30 -27 0 -30 -3 -30 -30z"/>
<path d="M28470 15380 c0 -20 -5 -30 -15 -30 -9 0 -15 -9 -15 -25 0 -15 6 -25
14 -25 10 0 15 -22 18 -85 5 -102 20 -125 80 -125 35 0 39 2 36 23 -2 14 -11
23 -25 25 -22 3 -23 8 -23 82 0 74 1 79 23 82 14 2 23 11 25 26 3 18 -1 22
-22 22 -22 0 -26 4 -26 30 0 28 -3 30 -35 30 -32 0 -35 -2 -35 -30z"/>
<path d="M6549 15335 c-32 -17 -59 -71 -59 -115 0 -45 28 -98 61 -115 63 -33
158 -9 172 44 7 29 -40 39 -59 13 -31 -44 -88 -31 -103 22 -13 48 3 104 32
115 28 10 54 3 70 -19 18 -25 67 -16 60 11 -14 53 -113 77 -174 44z"/>
<path d="M6930 15220 l0 -130 30 0 30 0 0 130 0 130 -30 0 -30 0 0 -130z"/>
<path d="M7022 15338 c3 -7 25 -66 49 -131 l44 -118 35 3 c38 3 29 -13 101
181 l28 77 -33 0 -33 0 -29 -95 c-16 -52 -31 -95 -34 -95 -3 0 -19 42 -36 93
-29 90 -31 92 -63 95 -25 3 -32 0 -29 -10z"/>
<path d="M7310 15220 l0 -130 30 0 30 0 0 130 0 130 -30 0 -30 0 0 -130z"/>
<path d="M7599 15273 c16 -43 38 -102 49 -131 25 -65 17 -102 -22 -102 -15 0
-25 -7 -29 -19 -6 -25 0 -31 32 -31 33 0 67 23 85 58 13 26 116 291 116 299 0
2 -14 3 -32 1 -31 -3 -33 -6 -62 -95 -17 -51 -33 -93 -36 -93 -3 0 -18 43 -34
95 l-29 95 -33 0 -33 0 28 -77z"/>
<path d="M28226 15327 c-49 -39 -5 -66 50 -31 20 14 30 15 49 6 14 -7 25 -20
25 -31 0 -15 -11 -21 -61 -30 -34 -6 -70 -18 -80 -27 -25 -23 -25 -78 1 -104
25 -25 101 -28 120 -5 7 8 16 15 21 15 5 0 9 -7 9 -15 0 -9 9 -15 25 -15 l25
0 0 105 c0 99 -2 107 -25 130 -34 35 -117 35 -159 2z m124 -142 c0 -32 -41
-60 -75 -51 -43 11 -29 57 20 69 45 11 55 7 55 -18z"/>
<path d="M28622 15246 c3 -94 5 -107 27 -130 31 -33 91 -36 121 -6 l20 20 0
-20 c0 -16 7 -20 30 -20 l30 0 0 130 0 130 -30 0 -30 0 0 -88 c0 -96 -12 -122
-58 -122 -37 0 -52 36 -52 127 l0 83 -31 0 -31 0 4 -104z"/>
<path d="M28925 15325 c-51 -50 -28 -97 60 -123 41 -13 61 -24 63 -36 8 -38
-55 -49 -86 -16 -14 15 -24 18 -47 11 l-30 -7 32 -32 c27 -28 38 -32 85 -32
59 0 94 18 108 56 19 48 -16 85 -94 99 -45 9 -63 29 -46 50 7 8 23 15 35 15
12 0 28 -7 35 -15 14 -17 56 -20 65 -5 3 5 -5 21 -19 35 -21 21 -35 25 -81 25
-46 0 -60 -4 -80 -25z"/>
<path d="M488 15019 c-12 -7 -18 -22 -18 -49 0 -33 -3 -40 -20 -40 -26 0 -40
-36 -40 -106 0 -85 15 -94 150 -94 149 0 150 1 150 150 0 144 -5 150 -122 150
-46 0 -91 -5 -100 -11z m192 -139 l0 -120 -95 0 -95 0 0 120 0 120 95 0 95 0
0 -120z m-210 -45 c0 -60 -3 -75 -15 -75 -12 0 -15 14 -15 68 0 38 3 72 7 75
17 18 23 1 23 -68z"/>
<path d="M522 14933 l3 -38 60 0 60 0 3 38 3 37 -66 0 -66 0 3 -37z m108 2 c0
-11 -11 -15 -40 -15 -29 0 -40 4 -40 15 0 11 11 15 40 15 29 0 40 -4 40 -15z"/>
<path d="M527 14863 c-17 -17 -2 -23 58 -23 51 0 65 3 65 15 0 12 -13 15 -58
15 -32 0 -62 -3 -65 -7z"/>
<path d="M520 14800 c0 -5 20 -10 45 -10 25 0 45 5 45 10 0 6 -20 10 -45 10
-25 0 -45 -4 -45 -10z"/>
<path d="M1310 14975 c0 -8 7 -15 15 -15 8 0 15 7 15 15 0 8 -7 15 -15 15 -8
0 -15 -7 -15 -15z"/>
<path d="M951 14958 c-22 -59 -61 -170 -61 -174 0 -2 7 -4 15 -4 9 0 20 11 25
25 8 21 16 25 50 25 34 0 42 -4 50 -25 5 -14 16 -25 25 -25 8 0 15 2 15 4 0 4
-43 121 -62 169 -13 33 -45 36 -57 5z m45 -59 l12 -39 -30 0 c-25 0 -29 3 -23
18 3 9 9 30 12 45 7 34 14 28 29 -24z"/>
<path d="M1540 14880 c0 -82 3 -100 15 -100 12 0 15 18 15 100 0 82 -3 100
-15 100 -12 0 -15 -18 -15 -100z"/>
<path d="M1212 14942 c-8 -17 -9 -28 -2 -30 5 -2 10 -30 10 -63 0 -54 2 -59
25 -65 32 -8 46 4 22 17 -23 13 -25 109 -2 109 8 0 15 5 15 10 0 6 -7 10 -15
10 -8 0 -15 9 -15 20 0 29 -23 24 -38 -8z"/>
<path d="M1100 14854 c0 -58 3 -74 15 -74 10 0 15 15 17 58 3 48 7 59 26 67
33 15 27 24 -18 23 l-40 0 0 -74z"/>
<path d="M1310 14855 c0 -60 3 -75 15 -75 12 0 15 15 15 75 0 60 -3 75 -15 75
-12 0 -15 -15 -15 -75z"/>
<path d="M1391 14904 c-12 -15 -21 -37 -21 -49 0 -33 37 -75 66 -75 33 0 64
17 64 35 0 20 -9 19 -32 -2 -32 -29 -76 12 -64 60 8 33 41 44 66 22 22 -20 39
-2 20 20 -21 25 -76 19 -99 -11z"/>
<path d="M1625 14910 c-11 -12 -19 -36 -19 -55 0 -19 8 -43 19 -55 24 -26 76
-27 100 0 20 22 9 26 -29 9 -20 -9 -29 -9 -41 1 -30 25 -18 40 35 40 41 0 50
3 50 18 0 56 -77 84 -115 42z m73 -12 c20 -20 14 -28 -23 -28 -24 0 -35 5 -35
14 0 24 39 33 58 14z"/>
<path d="M1778 14905 c-14 -30 -3 -44 44 -61 18 -6 33 -15 35 -21 6 -18 -34
-25 -56 -11 -25 15 -39 4 -21 -17 16 -20 74 -19 94 1 30 29 14 58 -40 73 -15
4 -29 12 -32 19 -6 18 28 27 49 14 24 -15 29 -15 29 2 0 17 -22 26 -61 26 -22
0 -32 -7 -41 -25z"/>
<path d="M6220 14795 c0 -2 -16 -47 -35 -100 -19 -52 -30 -95 -24 -95 6 0 15
14 20 30 10 27 15 30 55 30 41 0 46 -3 55 -30 6 -16 15 -30 21 -30 6 0 8 6 6
13 -53 143 -73 187 -84 187 -8 0 -14 -2 -14 -5z m37 -63 c18 -51 17 -52 -22
-52 -19 0 -35 1 -35 3 0 15 34 97 38 92 3 -3 12 -22 19 -43z"/>
<path d="M6560 14790 c0 -5 5 -10 10 -10 6 0 10 5 10 10 0 6 -4 10 -10 10 -5
0 -10 -4 -10 -10z"/>
<path d="M6794 14700 c0 -58 1 -81 3 -52 2 28 2 76 0 105 -2 28 -3 5 -3 -53z"/>
<path d="M7790 14765 c0 -34 -12 -46 -25 -25 -11 18 -53 11 -69 -12 -22 -31
-20 -84 4 -108 24 -24 47 -25 72 -3 17 15 18 15 18 0 0 -10 5 -17 10 -17 6 0
10 40 10 100 0 60 -4 100 -10 100 -5 0 -10 -16 -10 -35z m-4 -71 c14 -55 -38
-98 -74 -62 -13 13 -16 67 -4 84 21 32 68 19 78 -22z"/>
<path d="M8450 14765 c0 -34 -12 -46 -25 -25 -11 18 -53 11 -69 -12 -22 -31
-20 -84 4 -108 24 -24 47 -25 72 -3 17 15 18 15 18 0 0 -10 5 -17 10 -17 6 0
10 40 10 100 0 60 -4 100 -10 100 -5 0 -10 -16 -10 -35z m-4 -71 c14 -55 -38
-98 -74 -62 -13 13 -16 67 -4 84 21 32 68 19 78 -22z"/>
<path d="M9793 14700 c0 -83 1 -93 6 -47 7 66 30 94 62 76 15 -8 19 -21 19
-69 0 -33 4 -60 10 -60 13 0 13 106 0 131 -11 20 -54 26 -65 9 -13 -20 -24 -9
-28 28 -2 20 -4 -10 -4 -68z"/>
<path d="M27790 14795 c0 -2 -16 -47 -35 -100 -19 -52 -30 -95 -24 -95 6 0 15
14 20 30 10 27 15 30 55 30 41 0 46 -3 55 -30 6 -16 15 -30 21 -30 6 0 8 6 6
13 -53 143 -73 187 -84 187 -8 0 -14 -2 -14 -5z m37 -63 c18 -51 17 -52 -22
-52 -19 0 -35 1 -35 3 0 15 34 97 38 92 3 -3 12 -22 19 -43z"/>
<path d="M28130 14790 c0 -5 5 -10 10 -10 6 0 10 5 10 10 0 6 -4 10 -10 10 -5
0 -10 -4 -10 -10z"/>
<path d="M28364 14700 c0 -58 1 -81 3 -52 2 28 2 76 0 105 -2 28 -3 5 -3 -53z"/>
<path d="M28822 14700 c0 -58 3 -97 7 -87 6 17 8 17 20 3 18 -22 47 -20 71 4
26 26 27 90 2 113 -21 19 -57 22 -67 7 -13 -20 -24 -9 -28 28 -2 20 -4 -10 -5
-68z m99 -1 c3 -13 1 -36 -4 -51 -13 -39 -63 -40 -77 -2 -14 37 -12 52 10 74
25 25 62 14 71 -21z"/>
<path d="M6470 14770 c0 -11 -5 -20 -12 -20 -9 0 -9 -3 0 -12 7 -7 12 -35 12
-63 0 -28 5 -56 12 -63 15 -15 38 -16 38 -2 0 6 -7 10 -15 10 -23 0 -21 105 3
119 16 10 16 10 0 11 -11 0 -18 8 -18 20 0 11 -4 20 -10 20 -5 0 -10 -9 -10
-20z"/>
<path d="M9701 14777 c-1 -10 -8 -20 -17 -24 -15 -5 -15 -7 0 -15 12 -7 16
-24 16 -67 0 -44 4 -60 16 -65 23 -9 34 -7 34 4 0 6 -6 10 -14 10 -18 0 -26
22 -26 71 0 32 4 41 23 49 17 7 18 9 4 9 -10 1 -22 11 -27 24 -7 17 -9 18 -9
4z"/>
<path d="M28040 14770 c0 -11 -5 -20 -12 -20 -9 0 -9 -3 0 -12 7 -7 12 -35 12
-63 0 -28 5 -56 12 -63 15 -15 38 -16 38 -2 0 6 -7 10 -15 10 -23 0 -21 105 3
119 16 10 16 10 0 11 -11 0 -18 8 -18 20 0 11 -4 20 -10 20 -5 0 -10 -9 -10
-20z"/>
<path d="M29370 14770 c0 -11 -5 -20 -12 -20 -9 0 -9 -3 0 -12 7 -7 12 -35 12
-63 0 -28 5 -56 12 -63 15 -15 38 -16 38 -2 0 6 -7 10 -15 10 -24 0 -21 117 3
123 16 4 16 5 0 6 -11 1 -18 9 -18 21 0 11 -4 20 -10 20 -5 0 -10 -9 -10 -20z"/>
<path d="M29620 14770 c0 -11 -5 -20 -12 -20 -9 0 -9 -3 0 -12 7 -7 12 -35 12
-63 0 -28 5 -56 12 -63 15 -15 38 -16 38 -2 0 6 -7 10 -15 10 -24 0 -21 117 3
123 16 4 16 5 0 6 -11 1 -18 9 -18 21 0 11 -4 20 -10 20 -5 0 -10 -9 -10 -20z"/>
<path d="M6362 14675 c1 -76 1 -77 7 -25 7 65 15 80 42 80 10 0 19 5 19 10 0
14 -24 12 -38 -2 -10 -10 -15 -10 -22 2 -7 10 -9 -11 -8 -65z"/>
<path d="M6560 14675 c0 -43 4 -75 10 -75 6 0 10 32 10 75 0 43 -4 75 -10 75
-6 0 -10 -32 -10 -75z"/>
<path d="M6641 14724 c-12 -15 -21 -37 -21 -49 0 -31 37 -75 64 -75 28 0 64
25 52 37 -5 4 -11 2 -13 -4 -6 -16 -55 -17 -71 -1 -21 21 -15 75 10 92 28 20
33 20 53 0 9 -9 19 -13 23 -9 10 10 -28 35 -54 35 -12 0 -32 -12 -43 -26z"/>
<path d="M6870 14728 c-56 -61 18 -163 85 -115 12 10 14 16 7 21 -7 4 -12 2
-12 -3 0 -15 -53 -14 -68 1 -26 26 -13 38 42 38 l55 0 -10 32 c-15 53 -62 65
-99 26z m80 -18 c13 -24 4 -30 -42 -30 -32 0 -38 3 -38 20 0 12 9 24 23 29 27
10 44 4 57 -19z"/>
<path d="M7032 14738 c-24 -24 -13 -49 28 -65 25 -10 40 -22 40 -33 0 -24 -34
-31 -59 -13 -19 12 -21 12 -21 -1 0 -21 46 -31 76 -17 43 19 28 62 -28 76 -34
9 -43 32 -18 45 14 7 26 8 39 0 28 -14 36 -12 21 5 -15 18 -61 20 -78 3z"/>
<path d="M7252 14650 c1 -71 3 -91 7 -61 5 39 8 42 20 28 33 -41 91 -2 91 61
0 59 -54 94 -88 60 -10 -10 -15 -10 -22 2 -6 10 -9 -21 -8 -90z m99 49 c3 -13
1 -36 -4 -51 -13 -39 -63 -40 -77 -2 -14 37 -12 52 10 74 25 25 62 14 71 -21z"/>
<path d="M7422 14675 c1 -76 1 -77 7 -25 7 65 15 80 42 80 10 0 19 5 19 10 0
14 -24 12 -38 -2 -10 -10 -15 -10 -22 2 -7 10 -9 -11 -8 -65z"/>
<path d="M7531 14724 c-12 -15 -21 -37 -21 -49 0 -32 37 -75 65 -75 57 0 87
88 45 130 -28 28 -64 25 -89 -6z m81 -8 c9 -13 10 -59 2 -80 -7 -19 -55 -21
-72 -4 -7 7 -12 27 -12 44 0 51 56 78 82 40z"/>
<path d="M7861 14687 c-1 -63 1 -68 24 -79 19 -9 29 -8 49 5 23 15 25 15 29
-1 3 -9 5 19 5 63 -1 78 -1 79 -8 24 -9 -69 -15 -79 -45 -79 -30 0 -36 10 -45
79 l-7 56 -2 -68z"/>
<path d="M8037 14732 c-38 -41 -9 -132 42 -132 20 0 74 39 54 40 -6 0 -15 -4
-18 -10 -3 -5 -19 -10 -34 -10 -22 0 -31 7 -40 28 -23 55 23 109 66 76 27 -20
39 -17 18 6 -23 25 -67 26 -88 2z"/>
<path d="M8197 14732 c-26 -28 -22 -97 5 -116 27 -19 59 -21 76 -4 17 17 15
33 -2 19 -24 -20 -70 -10 -74 17 -3 20 0 22 47 22 47 0 51 2 51 23 0 50 -70
76 -103 39z m64 -2 c10 -6 19 -20 19 -30 0 -17 -7 -20 -39 -20 -48 0 -58 13
-31 40 23 23 25 23 51 10z"/>
<path d="M8602 14650 c1 -71 3 -91 7 -61 5 39 8 42 20 28 33 -41 91 -2 91 61
0 59 -54 94 -88 60 -10 -10 -15 -10 -22 2 -6 10 -9 -21 -8 -90z m99 49 c3 -13
1 -36 -4 -51 -13 -39 -63 -40 -77 -2 -14 37 -12 52 10 74 25 25 62 14 71 -21z"/>
<path d="M8781 14724 c-12 -15 -21 -37 -21 -49 0 -30 37 -75 61 -75 27 0 59
18 59 32 0 9 -3 9 -12 0 -26 -26 -88 -8 -88 25 0 9 17 13 55 13 58 0 63 6 44
43 -24 45 -67 50 -98 11z m84 -25 c0 -18 -63 -25 -79 -9 -8 8 -5 16 13 31 21
17 26 18 45 6 12 -8 21 -21 21 -28z"/>
<path d="M8930 14675 c0 -91 18 -101 22 -12 3 56 5 62 26 65 12 2 22 8 22 13
0 13 -24 11 -38 -3 -9 -9 -12 -9 -12 0 0 7 -4 12 -10 12 -6 0 -10 -32 -10 -75z"/>
<path d="M9120 14675 c0 -43 2 -76 5 -74 7 8 9 139 1 146 -3 3 -6 -29 -6 -72z"/>
<path d="M9154 14738 c-4 -6 -3 -8 4 -5 5 4 17 4 26 1 12 -5 16 -21 16 -70 0
-36 4 -64 10 -64 6 0 10 27 10 60 0 48 4 61 19 70 38 20 51 3 51 -66 0 -36 4
-64 10 -64 13 0 13 106 0 131 -13 23 -53 25 -71 3 -11 -14 -13 -14 -21 0 -10
19 -44 21 -54 4z"/>
<path d="M9375 14730 c-27 -30 -25 -88 4 -111 49 -40 101 -11 101 55 0 70 -63
103 -105 56z m86 -28 c15 -40 -6 -82 -42 -82 -48 0 -66 63 -30 99 25 25 59 17
72 -17z"/>
<path d="M9531 14675 l2 -80 7 59 c5 39 14 64 26 73 37 27 55 7 64 -68 l7 -64
2 66 c0 39 -4 70 -11 77 -16 16 -51 15 -66 0 -10 -10 -15 -10 -22 2 -7 10 -9
-11 -9 -65z"/>
<path d="M27932 14675 c1 -76 1 -77 7 -25 7 65 15 80 42 80 10 0 19 5 19 10 0
14 -24 12 -38 -2 -10 -10 -15 -10 -22 2 -7 10 -9 -11 -8 -65z"/>
<path d="M28130 14675 c0 -43 4 -75 10 -75 6 0 10 32 10 75 0 43 -4 75 -10 75
-6 0 -10 -32 -10 -75z"/>
<path d="M28211 14724 c-12 -15 -21 -37 -21 -49 0 -31 37 -75 64 -75 28 0 64
25 52 37 -5 4 -11 2 -13 -4 -6 -16 -55 -17 -71 -1 -21 21 -15 75 10 92 28 20
33 20 53 0 9 -9 19 -13 23 -9 10 10 -28 35 -54 35 -12 0 -32 -12 -43 -26z"/>
<path d="M28440 14728 c-56 -61 18 -163 85 -115 12 10 14 16 7 21 -7 4 -12 2
-12 -3 0 -15 -53 -14 -68 1 -26 26 -13 38 42 38 l55 0 -10 32 c-15 53 -62 65
-99 26z m80 -18 c13 -24 4 -30 -42 -30 -32 0 -38 3 -38 20 0 12 9 24 23 29 27
10 44 4 57 -19z"/>
<path d="M28602 14738 c-24 -24 -13 -49 28 -65 25 -10 40 -22 40 -33 0 -24
-34 -31 -59 -13 -19 12 -21 12 -21 -1 0 -21 46 -31 76 -17 43 19 28 62 -28 76
-34 9 -43 32 -18 45 14 7 26 8 39 0 28 -14 36 -12 21 5 -15 18 -61 20 -78 3z"/>
<path d="M28970 14745 c0 -3 12 -34 26 -70 28 -70 27 -110 -4 -118 -12 -3 -11
-5 6 -6 25 -1 28 5 76 133 14 36 21 66 17 66 -5 0 -20 -30 -33 -67 l-25 -67
-22 67 c-13 37 -27 67 -32 67 -5 0 -9 -2 -9 -5z"/>
<path d="M29232 14738 c-24 -24 -13 -49 28 -65 25 -10 40 -22 40 -33 0 -24
-34 -31 -59 -13 -19 12 -21 12 -21 -1 0 -21 46 -31 76 -17 43 19 28 62 -28 76
-34 9 -43 32 -18 45 14 7 26 8 39 0 28 -14 36 -12 21 5 -15 18 -61 20 -78 3z"/>
<path d="M29469 14733 c-15 -18 -16 -18 32 2 18 7 53 -21 44 -35 -3 -5 -20
-12 -38 -15 -17 -4 -38 -12 -44 -17 -38 -31 17 -85 59 -59 17 11 22 10 29 -1
5 -8 9 13 9 53 0 37 -5 70 -12 77 -17 17 -63 15 -79 -5z m81 -64 c0 -28 -22
-49 -51 -49 -26 0 -30 3 -27 22 2 16 12 25 33 29 45 10 45 10 45 -2z"/>
<path d="M29711 14687 c-1 -63 1 -68 24 -79 19 -9 29 -8 49 5 23 15 25 15 29
-1 3 -9 5 19 5 63 -1 78 -1 79 -8 24 -9 -69 -15 -79 -45 -79 -30 0 -36 10 -45
79 l-7 56 -2 -68z"/>
<path d="M29885 14734 c-23 -24 -14 -47 23 -60 39 -12 57 -28 48 -43 -9 -14
-66 -15 -66 -1 0 6 -4 10 -10 10 -18 0 -11 -19 11 -30 27 -15 66 -5 79 21 15
26 0 44 -40 53 -17 3 -33 13 -37 22 -7 19 16 36 37 28 8 -3 22 -9 30 -12 13
-5 13 -3 1 11 -17 22 -55 22 -76 1z"/>
<path d="M954 14183 c-34 -6 -57 -38 -50 -67 5 -19 18 -30 56 -43 55 -19 66
-44 29 -64 -18 -9 -27 -7 -50 10 -33 25 -39 26 -39 8 0 -24 35 -47 71 -47 87
1 102 86 19 111 -51 15 -67 33 -50 54 7 8 21 15 31 15 9 0 24 -7 33 -15 20
-20 38 -19 34 2 -4 20 -54 41 -84 36z"/>
<path d="M1080 14175 c0 -8 7 -15 15 -15 8 0 15 7 15 15 0 8 -7 15 -15 15 -8
0 -15 -7 -15 -15z"/>
<path d="M432 14083 l3 -88 43 -3 c49 -4 58 15 10 20 -28 2 -34 8 -36 31 -3
25 -1 27 32 27 45 0 47 18 4 22 -30 3 -33 6 -36 41 -2 20 -8 37 -13 37 -6 0
-9 -35 -7 -87z"/>
<path d="M490 14160 c0 -6 40 -10 100 -10 60 0 100 4 100 10 0 6 -40 10 -100
10 -60 0 -100 -4 -100 -10z"/>
<path d="M1152 14142 c-8 -17 -9 -28 -2 -30 5 -2 10 -30 10 -63 0 -54 2 -59
25 -65 32 -8 46 4 22 17 -23 13 -25 109 -2 109 8 0 15 5 15 10 0 6 -7 10 -15
10 -8 0 -15 9 -15 20 0 29 -23 24 -38 -8z"/>
<path d="M1080 14055 c0 -60 3 -75 15 -75 12 0 15 15 15 75 0 60 -3 75 -15 75
-12 0 -15 -15 -15 -75z"/>
<path d="M1256 14108 c-22 -31 -20 -80 4 -106 24 -26 81 -30 100 -7 18 22 4
31 -24 16 -27 -15 -66 -1 -66 24 0 11 13 15 56 15 47 0 55 3 50 16 -3 9 -6 19
-6 24 0 19 -34 40 -65 40 -24 0 -39 -7 -49 -22z m84 -18 c10 -18 8 -20 -30
-20 -41 0 -49 7 -28 28 18 18 46 14 58 -8z"/>
<path d="M1410 14054 c0 -59 3 -74 15 -74 12 0 15 13 15 60 0 45 4 62 15 66
28 11 45 -16 45 -72 0 -41 4 -54 15 -54 12 0 15 13 15 60 0 45 4 62 15 66 28
11 45 -16 45 -72 0 -41 4 -54 15 -54 11 0 15 12 15 49 0 73 -13 101 -48 101
-15 0 -34 -6 -40 -12 -10 -10 -14 -10 -20 -1 -5 7 -28 12 -55 11 l-47 -1 0
-73z"/>
<path d="M1670 14115 c-17 -21 -4 -32 20 -17 26 16 47 15 53 -3 7 -17 3 -20
-45 -29 -29 -5 -39 -13 -44 -32 -4 -14 -1 -31 6 -39 15 -18 61 -20 78 -3 9 9
12 9 12 0 0 -7 7 -12 15 -12 21 0 21 98 -1 128 -18 26 -75 30 -94 7z m80 -71
c0 -18 -24 -44 -41 -44 -24 0 -37 29 -18 41 16 10 59 12 59 3z"/>
<path d="M1820 14024 c0 -80 3 -105 13 -102 6 3 13 18 15 34 3 28 6 30 33 26
44 -6 69 21 69 74 0 25 -6 49 -16 58 -18 19 -65 21 -82 4 -9 -9 -12 -9 -12 0
0 7 -4 12 -10 12 -6 0 -10 -42 -10 -106z m88 74 c18 -18 15 -75 -5 -87 -28
-15 -53 5 -53 42 0 33 15 57 35 57 6 0 16 -5 23 -12z"/>
<path d="M2000 14115 c-24 -29 -7 -54 54 -75 27 -10 28 -12 13 -27 -14 -15
-20 -15 -42 -3 -29 16 -44 7 -25 -15 21 -25 77 -19 96 10 20 31 7 51 -39 63
-17 4 -32 13 -35 20 -6 18 28 27 50 13 25 -15 35 -7 18 14 -16 19 -74 20 -90
0z"/>
<path d="M560 14080 c0 -6 28 -10 65 -10 37 0 65 4 65 10 0 6 -28 10 -65 10
-37 0 -65 -4 -65 -10z"/>
<path d="M560 14000 c0 -6 28 -10 65 -10 37 0 65 4 65 10 0 6 -28 10 -65 10
-37 0 -65 -4 -65 -10z"/>
<path d="M6893 13853 c-7 -2 -13 -12 -13 -21 1 -15 2 -15 11 1 17 30 69 15 69
-20 0 -8 -20 -36 -45 -62 -25 -26 -45 -51 -45 -55 0 -3 25 -6 56 -6 34 0 53 4
49 10 -3 6 -22 10 -42 10 l-35 0 36 44 c37 46 44 74 24 94 -12 12 -43 15 -65
5z"/>
<path d="M7037 13842 c-23 -26 -22 -103 1 -132 24 -30 68 -21 82 16 34 88 -29
175 -83 116z m60 -4 c29 -37 19 -120 -15 -133 -38 -15 -68 76 -42 126 12 22
43 25 57 7z"/>
<path d="M7187 13842 c-23 -26 -22 -103 1 -132 24 -30 68 -21 82 16 34 88 -29
175 -83 116z m60 -4 c29 -37 19 -120 -15 -133 -38 -15 -68 76 -42 126 12 22
43 25 57 7z"/>
<path d="M30405 13744 c-289 -30 -446 -61 -646 -128 -708 -236 -1256 -734
-1557 -1416 -96 -216 -160 -444 -199 -697 -25 -170 -23 -518 6 -702 71 -461
233 -843 515 -1216 245 -324 596 -601 972 -769 557 -248 1154 -299 1730 -147
176 47 417 143 574 229 203 111 483 323 613 463 360 386 585 813 682 1290 26
130 51 336 43 345 -3 2 -286 22 -629 44 -343 21 -651 41 -684 45 l-61 5 -12
-100 c-19 -161 -89 -346 -188 -497 -50 -76 -213 -244 -289 -298 -247 -177
-541 -257 -826 -226 -288 31 -518 139 -722 339 -110 108 -174 195 -240 327
-88 176 -122 328 -120 540 1 246 69 466 206 670 56 83 186 216 282 288 225
169 549 259 823 229 290 -32 520 -139 721 -336 217 -212 328 -441 362 -748
l12 -108 689 0 690 0 -7 103 c-20 323 -69 556 -177 834 -146 379 -443 795
-740 1035 -390 316 -823 509 -1293 577 -133 19 -443 34 -530 25z"/>
<path d="M7586 13641 c9 -8 408 -200 744 -356 85 -40 301 -141 480 -225 1408
-661 2589 -1155 3545 -1485 1452 -502 2656 -761 3880 -836 232 -15 1160 -14
1631 1 1972 62 3770 219 6749 591 1312 164 1375 172 1375 181 0 5 -10 6 -22 3
-35 -8 -1881 -236 -2508 -310 -2573 -304 -4464 -443 -6265 -462 -804 -8 -1176
10 -1735 83 -1475 192 -2944 632 -4925 1474 -290 123 -760 329 -930 408 -563
259 -957 442 -1230 572 -176 84 -338 160 -360 170 -22 10 -127 59 -233 109
-186 88 -217 101 -196 82z"/>
<path d="M414 13397 c-3 -8 -3 -56 -2 -108 l3 -94 57 -3 c46 -2 61 -7 73 -25
l16 -22 17 22 c13 17 29 23 72 25 l55 3 0 105 0 105 -58 3 c-33 2 -65 -2 -72
-8 -10 -8 -19 -8 -34 -1 -29 16 -120 14 -127 -2z m126 -33 c6 -14 10 -54 10
-90 l0 -64 -55 0 -55 0 0 90 0 90 45 0 c40 0 47 -3 55 -26z m140 -64 l0 -90
-56 0 -55 0 2 80 c2 90 8 99 72 100 l37 0 0 -90z"/>
<path d="M470 13336 c0 -11 9 -16 26 -16 31 0 28 23 -4 28 -15 2 -22 -2 -22
-12z"/>
<path d="M470 13280 c0 -5 11 -10 25 -10 14 0 25 5 25 10 0 6 -11 10 -25 10
-14 0 -25 -4 -25 -10z"/>
<path d="M607 13343 c-14 -13 -6 -23 18 -23 16 0 25 6 25 15 0 15 -31 21 -43
8z"/>
<path d="M600 13280 c0 -5 11 -10 25 -10 14 0 25 5 25 10 0 6 -11 10 -25 10
-14 0 -25 -4 -25 -10z"/>
<path d="M900 13280 c0 -82 3 -100 15 -100 10 0 15 11 15 35 0 33 2 35 34 35
67 0 102 64 61 110 -14 15 -31 20 -72 20 l-53 0 0 -100z m94 67 c11 -8 17 -23
14 -38 -2 -20 -9 -25 -40 -27 -37 -3 -38 -2 -38 31 0 18 3 37 7 40 10 11 38 8
57 -6z"/>
<path d="M1090 13315 c-17 -21 -4 -32 20 -17 26 16 47 15 53 -3 7 -17 3 -20
-45 -29 -29 -5 -39 -13 -44 -32 -4 -14 -1 -31 6 -39 15 -18 61 -20 78 -3 9 9
12 9 12 0 0 -7 7 -12 15 -12 21 0 21 98 -1 128 -18 26 -75 30 -94 7z m80 -71
c0 -18 -24 -44 -41 -44 -24 0 -37 29 -18 41 16 10 59 12 59 3z"/>
<path d="M1246 13308 c-23 -33 -20 -75 9 -103 27 -28 37 -30 66 -15 16 9 19 7
19 -9 0 -29 -33 -44 -64 -29 -32 14 -48 1 -22 -18 26 -18 66 -18 94 2 20 14
22 23 22 105 0 72 -3 89 -15 89 -8 0 -15 -5 -15 -12 0 -9 -3 -9 -12 0 -20 20
-65 14 -82 -10z m82 -10 c7 -7 12 -24 12 -38 0 -48 -49 -69 -70 -31 -14 27
-13 47 6 65 19 19 36 20 52 4z"/>
<path d="M1425 13310 c-11 -12 -19 -36 -19 -55 0 -19 8 -43 19 -55 24 -26 76
-27 100 0 20 22 9 26 -29 9 -20 -9 -29 -9 -41 1 -30 25 -18 40 35 40 41 0 50
3 50 18 0 56 -77 84 -115 42z m73 -12 c20 -20 14 -28 -23 -28 -24 0 -35 5 -35
14 0 24 39 33 58 14z"/>
<path d="M1586 13314 c-19 -18 -19 -20 -6 -44 5 -10 23 -21 40 -25 34 -8 47
-22 32 -37 -8 -8 -20 -7 -42 2 -36 15 -47 9 -25 -14 20 -20 78 -21 95 -2 20
26 8 58 -27 70 -18 6 -38 16 -44 23 -18 18 18 30 43 14 24 -15 43 -5 27 15
-15 19 -74 18 -93 -2z"/>
<path d="M6938 12916 c-10 -7 -18 -17 -18 -22 0 -4 5 -3 12 4 28 28 37 13 41
-65 l3 -78 2 88 c2 91 -3 101 -40 73z"/>
<path d="M7037 12923 c-11 -11 -8 -73 4 -73 5 0 8 4 4 10 -3 5 -3 20 1 34 5
20 13 26 42 29 l37 4 -41 1 c-22 1 -44 -1 -47 -5z"/>
<path d="M7187 12912 c-23 -26 -22 -103 1 -132 24 -30 68 -21 82 16 34 88 -29
175 -83 116z m60 -4 c29 -37 19 -120 -15 -133 -38 -15 -68 76 -42 126 12 22
43 25 57 7z"/>
<path d="M7080 12857 c32 -16 39 -61 12 -76 -14 -7 -25 -6 -40 5 -12 8 -22 11
-22 5 0 -20 41 -34 66 -22 50 22 34 101 -20 101 -19 0 -19 -1 4 -13z"/>
<path d="M426 12584 c-19 -18 -23 -155 -6 -198 9 -25 13 -26 81 -26 52 0 70 3
67 13 -3 7 -28 13 -66 15 l-62 3 0 64 c0 36 3 65 6 65 3 0 24 -13 47 -28 63
-43 69 -43 128 -6 l54 33 3 -29 c2 -18 9 -30 18 -30 17 0 20 74 4 114 -10 26
-10 26 -134 26 -100 0 -128 -3 -140 -16z m254 -23 c0 -9 -110 -81 -124 -81
-12 0 -116 73 -116 81 0 5 54 9 120 9 67 0 120 -4 120 -9z"/>
<path d="M1480 12575 c0 -8 7 -15 15 -15 8 0 15 7 15 15 0 8 -7 15 -15 15 -8
0 -15 -7 -15 -15z"/>
<path d="M1884 12580 c-28 -11 -36 -34 -23 -66 7 -21 6 -31 -6 -44 -21 -23
-19 -67 3 -79 10 -6 46 -10 80 -9 50 1 60 3 51 14 -6 8 -8 26 -4 44 5 23 3 30
-9 30 -9 0 -16 -8 -16 -17 0 -15 -3 -14 -22 4 -21 21 -21 23 -4 42 38 42 2
100 -50 81z m42 -31 c10 -17 -23 -46 -37 -32 -7 7 -9 19 -6 27 7 18 33 21 43
5z m4 -132 c0 -9 -30 -16 -45 -11 -18 7 -20 35 -4 51 9 9 17 6 30 -12 11 -13
19 -25 19 -28z"/>
<path d="M900 12480 l0 -100 65 0 c51 0 65 3 65 15 0 11 -12 15 -50 15 -49 0
-50 1 -50 30 0 29 2 30 45 30 33 0 45 4 45 15 0 11 -12 15 -46 15 -44 0 -45 1
-42 28 3 25 7 27 51 30 71 5 57 22 -18 22 l-65 0 0 -100z"/>
<path d="M1550 12480 c0 -82 3 -100 15 -100 12 0 15 18 15 100 0 82 -3 100
-15 100 -12 0 -15 -18 -15 -100z"/>
<path d="M2100 12480 c0 -82 3 -100 15 -100 10 0 15 11 15 35 0 33 2 35 34 35
67 0 102 64 61 110 -14 15 -31 20 -72 20 l-53 0 0 -100z m94 67 c11 -8 17 -23
14 -38 -2 -20 -9 -25 -40 -27 -37 -3 -38 -2 -38 31 0 18 3 37 7 40 10 11 38 8
57 -6z"/>
<path d="M2600 12480 c0 -81 3 -100 15 -100 10 0 15 15 17 56 2 40 8 60 20 67
29 19 48 -9 48 -69 0 -41 4 -54 15 -54 11 0 15 12 15 49 0 73 -13 101 -48 101
-15 0 -33 -5 -40 -12 -9 -9 -12 -4 -12 25 0 26 -4 37 -15 37 -12 0 -15 -18
-15 -100z"/>
<path d="M1070 12455 c0 -60 3 -75 15 -75 11 0 15 13 15 54 0 35 5 58 15 66
26 22 45 -5 45 -66 0 -41 4 -54 15 -54 12 0 15 13 15 60 0 45 4 62 15 66 28
11 45 -16 45 -72 0 -41 4 -54 15 -54 12 0 15 13 15 56 0 30 -5 64 -10 75 -12
21 -59 26 -77 8 -8 -8 -13 -8 -17 0 -9 15 -49 14 -64 -1 -9 -9 -12 -9 -12 0 0
7 -7 12 -15 12 -12 0 -15 -15 -15 -75z"/>
<path d="M1330 12515 c-17 -21 -4 -32 20 -17 26 16 47 15 53 -3 7 -17 3 -20
-45 -29 -29 -5 -39 -13 -44 -32 -4 -14 -1 -31 6 -39 15 -18 61 -20 78 -3 9 9
12 9 12 0 0 -7 7 -12 15 -12 21 0 21 98 -1 128 -18 26 -75 30 -94 7z m80 -71
c0 -18 -24 -44 -41 -44 -24 0 -37 29 -18 41 16 10 59 12 59 3z"/>
<path d="M1480 12455 c0 -60 3 -75 15 -75 12 0 15 15 15 75 0 60 -3 75 -15 75
-12 0 -15 -15 -15 -75z"/>
<path d="M1632 12518 c-7 -7 -12 -22 -12 -35 0 -17 9 -25 40 -34 40 -12 53
-35 25 -45 -8 -4 -22 -1 -30 6 -8 6 -22 10 -31 8 -31 -6 12 -38 50 -38 66 0
78 66 16 86 -38 13 -54 44 -23 44 11 0 24 -5 30 -11 17 -17 37 -1 22 17 -14
17 -71 18 -87 2z"/>
<path d="M2280 12472 c0 -44 5 -63 18 -75 22 -20 53 -22 70 -5 9 9 12 9 12 0
0 -7 7 -12 15 -12 12 0 15 15 15 75 0 60 -3 75 -15 75 -11 0 -15 -12 -15 -49
0 -59 -20 -87 -51 -71 -15 9 -19 22 -19 65 0 42 -3 55 -15 55 -12 0 -15 -13
-15 -58z"/>
<path d="M2460 12515 c-24 -29 -7 -54 54 -75 27 -10 28 -12 13 -27 -14 -15
-20 -15 -42 -3 -29 16 -44 7 -25 -15 21 -25 77 -19 96 10 20 31 7 51 -39 63
-17 4 -32 13 -35 20 -6 18 28 27 50 13 25 -15 35 -7 18 14 -16 19 -74 20 -90
0z"/>
<path d="M663 12398 c-18 -17 -25 -19 -37 -9 -22 19 -28 -4 -6 -24 20 -18 21
-18 50 10 29 28 38 45 22 45 -4 0 -17 -10 -29 -22z"/>
<path d="M6929 11983 c-13 -15 -12 -15 8 -5 22 12 22 11 26 -70 l3 -83 2 88
c2 68 -1 87 -12 87 -7 0 -20 -7 -27 -17z"/>
<path d="M7037 11982 c-23 -26 -22 -103 1 -132 24 -30 68 -21 82 16 34 88 -29
175 -83 116z m60 -4 c29 -37 19 -120 -15 -133 -38 -15 -68 76 -42 126 12 22
43 25 57 7z"/>
<path d="M7187 11982 c-23 -26 -22 -103 1 -132 24 -30 68 -21 82 16 34 88 -29
175 -83 116z m60 -4 c29 -37 19 -120 -15 -133 -38 -15 -68 76 -42 126 12 22
43 25 57 7z"/>
<path d="M725 11731 c-6 -11 9 -23 19 -14 9 9 7 23 -3 23 -6 0 -12 -4 -16 -9z"/>
<path d="M276 11717 c-29 -21 -15 -50 37 -75 50 -24 56 -32 32 -52 -16 -13
-65 -6 -65 10 0 6 -4 10 -10 10 -22 0 -8 -28 20 -40 24 -10 37 -10 56 -1 49
22 43 67 -12 84 -40 13 -54 26 -47 43 6 17 60 19 65 3 2 -7 10 -10 17 -8 11 4
10 9 -3 22 -21 20 -65 22 -90 4z"/>
<path d="M560 11706 c0 -8 -6 -17 -12 -19 -10 -4 -10 -7 -1 -14 6 -5 13 -28
15 -52 2 -28 9 -48 20 -55 24 -14 34 -1 14 19 -21 21 -21 71 0 83 15 8 15 11
-5 31 -25 25 -31 26 -31 7z"/>
<path d="M639 11703 c-7 -82 12 -143 43 -143 21 1 22 2 6 14 -21 16 -25 91 -5
100 10 5 10 7 0 12 -7 3 -13 12 -13 20 0 20 -30 17 -31 -3z"/>
<path d="M430 11670 c-11 -11 -20 -31 -20 -45 0 -29 32 -65 58 -65 10 0 27 7
38 15 18 15 17 16 -14 10 -20 -4 -38 -2 -47 5 -22 18 -8 30 36 30 31 0 39 4
39 18 0 23 -30 52 -53 52 -9 0 -26 -9 -37 -20z m65 -20 c0 -16 -28 -25 -52
-16 -12 5 -13 9 -3 22 16 18 55 15 55 -6z"/>
<path d="M730 11625 c0 -37 4 -65 10 -65 6 0 10 28 10 65 0 37 -4 65 -10 65
-6 0 -10 -28 -10 -65z"/>
<path d="M790 11625 c0 -37 4 -65 10 -65 6 0 10 19 10 43 0 51 11 70 36 65 15
-2 20 -14 22 -56 4 -69 22 -67 22 2 0 64 -17 85 -55 68 -15 -7 -25 -8 -25 -2
0 6 -4 10 -10 10 -6 0 -10 -28 -10 -65z"/>
<path d="M950 11670 c-22 -22 -26 -51 -10 -81 12 -22 50 -25 69 -6 10 10 12 6
9 -18 -3 -28 -6 -30 -42 -29 -37 2 -39 1 -20 -13 19 -14 60 -10 79 8 5 5 11
43 13 84 4 62 2 75 -11 75 -20 0 -26 -17 -20 -55 6 -35 -15 -59 -40 -49 -38
14 -26 84 14 84 11 0 17 5 14 10 -10 16 -33 12 -55 -10z"/>
<path d="M1096 11674 c-27 -27 -15 -45 37 -58 42 -10 27 -31 -19 -29 -36 2
-38 1 -20 -12 24 -18 47 -19 70 -2 27 20 16 49 -22 59 -19 5 -32 15 -32 24 0
13 7 15 38 10 34 -6 36 -5 18 9 -25 19 -50 19 -70 -1z"/>
<path d="M30115 11421 c-37 -17 -75 -63 -75 -90 0 -6 18 -11 40 -11 28 0 46 7
64 25 30 30 69 32 96 5 41 -41 12 -90 -53 -90 -35 0 -37 -2 -37 -34 0 -32 2
-34 41 -39 72 -9 100 -56 59 -97 -29 -29 -85 -27 -114 5 -18 19 -33 25 -65 25
-39 0 -42 -2 -36 -22 20 -65 74 -99 159 -99 100 0 166 51 166 129 0 38 -45 92
-77 92 -14 1 -11 4 9 16 34 18 48 43 48 84 0 97 -118 150 -225 101z"/>
<path d="M30504 11415 c-57 -34 -84 -98 -84 -197 1 -148 58 -220 171 -220 62
1 103 23 136 73 22 34 27 55 31 124 5 93 -7 140 -45 186 -54 64 -137 78 -209
34z m118 -56 c30 -16 48 -71 48 -147 0 -55 -5 -76 -23 -103 -30 -45 -73 -51
-107 -14 -21 23 -25 38 -29 106 -3 87 8 130 43 154 24 18 40 19 68 4z"/>
<path d="M30807 11434 c-4 -4 -7 -22 -7 -41 l0 -33 105 0 c58 0 105 -3 105 -7
0 -3 -40 -84 -90 -180 l-89 -173 47 0 47 0 94 188 c69 138 92 195 89 217 l-3
30 -146 3 c-80 1 -148 -1 -152 -4z"/>
<path d="M7037 11073 c-11 -11 -8 -73 4 -73 5 0 8 4 4 10 -3 5 -3 20 1 34 5
20 13 26 42 29 l37 4 -41 1 c-22 1 -44 -1 -47 -5z"/>
<path d="M7187 11062 c-23 -26 -22 -103 1 -132 24 -30 68 -21 82 16 34 88 -29
175 -83 116z m60 -4 c29 -37 19 -120 -15 -133 -38 -15 -68 76 -42 126 12 22
43 25 57 7z"/>
<path d="M7080 11007 c32 -16 39 -61 12 -76 -14 -7 -25 -6 -40 5 -12 8 -22 11
-22 5 0 -20 41 -34 66 -22 50 22 34 101 -20 101 -19 0 -19 -1 4 -13z"/>
<path d="M577 10944 c-14 -14 -8 -74 8 -74 8 0 15 5 15 10 0 6 20 10 45 10 33
0 45 4 45 15 0 11 -11 15 -41 15 -26 0 -46 6 -53 16 -6 8 -15 12 -19 8z"/>
<path d="M430 10905 c0 -13 10 -15 55 -13 30 2 55 8 55 13 0 6 -25 11 -55 13
-45 2 -55 0 -55 -13z"/>
<path d="M954 10903 c-34 -6 -57 -38 -50 -67 5 -19 18 -30 56 -43 55 -19 66
-44 29 -64 -18 -9 -27 -7 -50 10 -33 25 -39 26 -39 8 0 -24 35 -47 71 -47 87
1 102 86 19 111 -51 15 -67 33 -50 54 7 8 21 15 31 15 9 0 24 -7 33 -15 20
-20 38 -19 34 2 -4 20 -54 41 -84 36z"/>
<path d="M1435 10900 c-3 -6 1 -13 10 -16 19 -8 30 0 20 15 -8 14 -22 14 -30
1z"/>
<path d="M1250 10871 c0 -11 -6 -22 -12 -25 -10 -5 -10 -7 0 -12 7 -3 12 -26
12 -58 0 -54 12 -76 42 -76 22 0 24 16 3 24 -11 4 -15 20 -15 56 0 38 4 50 15
50 8 0 15 5 15 10 0 6 -7 10 -15 10 -8 0 -15 9 -15 20 0 11 -7 20 -15 20 -8 0
-15 -9 -15 -19z"/>
<path d="M1350 10875 c0 -7 -8 -18 -17 -24 -17 -9 -17 -11 -1 -23 12 -9 18
-30 20 -68 3 -52 5 -55 31 -58 29 -4 37 12 12 22 -11 4 -15 20 -15 56 0 38 4
50 15 50 8 0 15 5 15 10 0 6 -6 10 -14 10 -7 0 -16 9 -19 20 -6 23 -27 27 -27
5z"/>
<path d="M1095 10830 c-11 -12 -19 -36 -19 -55 0 -19 8 -43 19 -55 24 -26 76
-27 100 0 20 22 9 26 -29 9 -20 -9 -29 -9 -41 1 -30 25 -18 40 35 40 41 0 50
3 50 18 0 56 -77 84 -115 42z m73 -12 c20 -20 14 -28 -23 -28 -24 0 -35 5 -35
14 0 24 39 33 58 14z"/>
<path d="M1440 10775 c0 -60 3 -75 15 -75 12 0 15 15 15 75 0 60 -3 75 -15 75
-12 0 -15 -15 -15 -75z"/>
<path d="M1510 10775 c0 -60 3 -75 15 -75 12 0 15 13 15 59 0 51 3 61 20 66
32 10 40 -3 40 -66 0 -46 3 -59 15 -59 12 0 15 14 15 63 0 69 -10 87 -50 87
-14 0 -31 -5 -38 -12 -9 -9 -12 -9 -12 0 0 7 -4 12 -10 12 -6 0 -10 -32 -10
-75z"/>
<path d="M1687 10832 c-24 -26 -22 -87 4 -113 20 -20 32 -21 72 -4 12 5 17 2
17 -8 0 -24 -30 -49 -49 -41 -35 14 -51 16 -51 6 0 -30 72 -41 105 -16 17 12
21 29 23 104 3 77 2 90 -12 90 -9 0 -16 -5 -16 -12 0 -9 -3 -9 -12 0 -18 18
-63 14 -81 -6z m79 -31 c16 -31 3 -65 -26 -69 -26 -4 -40 12 -40 49 0 50 44
64 66 20z"/>
<path d="M1862 10838 c-7 -7 -12 -22 -12 -35 0 -17 9 -25 40 -34 40 -12 53
-35 25 -45 -8 -4 -22 -1 -30 6 -8 6 -22 10 -31 8 -31 -6 12 -38 50 -38 66 0
78 66 16 86 -38 13 -54 44 -23 44 11 0 24 -5 30 -11 17 -17 37 -1 22 17 -14
17 -71 18 -87 2z"/>
<path d="M494 10825 c-4 -9 -19 -15 -35 -15 -16 0 -29 -4 -29 -10 0 -5 13 -10
29 -10 16 0 31 -6 35 -15 11 -29 26 -15 26 25 0 40 -15 54 -26 25z"/>
<path d="M550 10800 c0 -6 30 -10 70 -10 40 0 70 4 70 10 0 6 -30 10 -70 10
-40 0 -70 -4 -70 -10z"/>
<path d="M30495 10790 c-3 -5 -1 -10 4 -10 6 0 11 5 11 10 0 6 -2 10 -4 10 -3
0 -8 -4 -11 -10z"/>
<path d="M30201 10768 c-4 -13 -18 -49 -30 -82 -22 -59 -22 -91 0 -42 10 21
19 26 49 26 30 0 39 -5 49 -26 25 -55 20 -14 -8 61 -31 85 -46 101 -60 63z
m37 -37 c16 -52 16 -51 -18 -51 -16 0 -30 3 -30 6 0 17 24 84 30 84 4 0 12
-17 18 -39z"/>
<path d="M30690 10705 c0 -50 4 -85 10 -85 6 0 10 35 10 85 0 50 -4 85 -10 85
-6 0 -10 -35 -10 -85z"/>
<path d="M30421 10768 c0 -10 -6 -18 -13 -18 -9 0 -9 -3 0 -12 7 -7 12 -30 12
-53 0 -39 13 -65 34 -65 5 0 2 8 -7 18 -23 25 -22 88 1 101 15 9 15 10 0 11
-9 0 -19 8 -21 18 -4 16 -5 16 -6 0z"/>
<path d="M30332 10685 c1 -59 2 -62 5 -20 3 37 10 55 26 67 12 10 17 18 10 18
-6 0 -15 -5 -19 -11 -4 -8 -9 -7 -15 2 -5 9 -8 -14 -7 -56z"/>
<path d="M30503 10685 c0 -38 2 -53 4 -32 2 20 2 52 0 70 -2 17 -4 1 -4 -38z"/>
<path d="M30570 10730 c-36 -36 -15 -110 31 -110 18 0 59 29 42 30 -6 0 -15
-4 -18 -10 -19 -31 -72 21 -60 60 9 27 43 46 58 31 6 -6 16 -11 22 -11 15 1
-26 30 -42 30 -7 0 -22 -9 -33 -20z"/>
<path d="M30765 10730 c-33 -36 -10 -110 35 -110 18 0 62 29 45 30 -6 0 -16
-5 -23 -12 -15 -15 -62 5 -62 27 0 11 11 15 45 15 37 0 45 3 45 18 0 22 -30
52 -52 52 -8 0 -23 -9 -33 -20z m59 -6 c22 -22 11 -34 -30 -34 -38 0 -47 22
-16 39 23 14 28 14 46 -5z"/>
<path d="M30904 10736 c-15 -12 -17 -18 -8 -33 6 -10 22 -20 35 -23 28 -7 37
-35 14 -44 -9 -3 -25 -1 -36 4 -12 7 -19 7 -19 1 0 -14 36 -24 59 -16 39 12
32 65 -9 65 -27 0 -43 25 -26 39 11 9 20 10 35 1 12 -6 21 -7 21 -1 0 8 -23
21 -39 21 -4 0 -16 -6 -27 -14z"/>
<path d="M600 10696 c0 -38 16 -57 26 -32 4 10 18 16 35 16 19 0 29 5 29 15 0
10 -10 15 -30 15 -16 0 -30 5 -30 10 0 6 -7 10 -15 10 -10 0 -15 -10 -15 -34z"/>
<path d="M430 10695 c0 -12 14 -15 70 -15 56 0 70 3 70 15 0 12 -14 15 -70 15
-56 0 -70 -3 -70 -15z"/>
<path d="M578 10193 c12 -2 30 -2 40 0 9 3 -1 5 -23 4 -22 0 -30 -2 -17 -4z"/>
<path d="M516 10181 c-4 -5 3 -7 14 -4 23 6 26 13 6 13 -8 0 -17 -4 -20 -9z"/>
<path d="M518 10148 c-47 -27 -57 -48 -23 -48 25 0 34 -15 14 -22 -8 -3 -2
-32 17 -91 l28 -88 19 53 c15 43 16 60 7 91 -6 22 -17 37 -26 37 -8 0 -12 5
-9 10 8 13 105 13 105 1 0 -5 -6 -11 -14 -13 -11 -2 -7 -21 17 -87 l31 -84 12
34 c17 48 17 91 -2 128 -12 24 -13 36 -5 44 18 18 13 27 -24 43 -49 20 -104
17 -147 -8z"/>
<path d="M700 10166 c0 -2 8 -10 18 -17 15 -13 16 -12 3 4 -13 16 -21 21 -21
13z"/>
<path d="M7187 10132 c-23 -26 -22 -103 1 -132 24 -30 68 -21 82 16 34 88 -29
175 -83 116z m60 -4 c29 -37 19 -120 -15 -133 -38 -15 -68 76 -42 126 12 22
43 25 57 7z"/>
<path d="M764 10086 c12 -23 22 -39 24 -35 4 9 -24 66 -36 73 -5 3 1 -14 12
-38z"/>
<path d="M3465 10100 c-3 -6 1 -13 10 -16 19 -8 30 0 20 15 -8 14 -22 14 -30
1z"/>
<path d="M890 10095 c0 -3 12 -48 26 -100 21 -75 30 -95 44 -95 14 0 23 16 36
70 10 39 21 70 24 70 3 0 14 -31 24 -70 14 -55 22 -70 36 -70 14 0 22 12 30
43 6 23 18 64 26 91 17 62 17 66 -1 66 -14 0 -26 -33 -41 -108 -7 -36 -24 -54
-24 -26 0 10 -7 44 -16 76 -12 43 -21 58 -34 58 -14 0 -22 -16 -36 -75 -18
-78 -27 -86 -38 -33 -15 75 -27 108 -41 108 -8 0 -15 -2 -15 -5z"/>
<path d="M1540 10064 c0 -31 -2 -35 -14 -25 -24 20 -69 9 -85 -21 -22 -39 -5
-99 32 -112 20 -7 34 -7 47 2 12 7 20 8 20 2 0 -5 7 -10 15 -10 12 0 15 18 15
100 0 82 -3 100 -15 100 -11 0 -15 -11 -15 -36z m-12 -46 c24 -24 5 -98 -25
-98 -16 0 -43 35 -43 56 0 41 42 68 68 42z"/>
<path d="M2430 10000 c0 -82 3 -100 15 -100 12 0 15 18 15 100 0 82 -3 100
-15 100 -12 0 -15 -18 -15 -100z"/>
<path d="M2672 10062 c-8 -17 -9 -28 -2 -30 5 -2 10 -30 10 -63 0 -54 2 -59
25 -65 32 -8 46 4 22 17 -23 13 -25 109 -2 109 8 0 15 5 15 10 0 6 -7 10 -15
10 -8 0 -15 9 -15 20 0 29 -23 24 -38 -8z"/>
<path d="M3380 10075 c0 -7 -8 -18 -17 -24 -17 -9 -17 -11 -1 -23 12 -9 18
-30 20 -68 3 -52 5 -55 31 -58 29 -4 37 12 12 22 -11 4 -15 20 -15 56 0 38 4
50 15 50 8 0 15 5 15 10 0 6 -6 10 -14 10 -7 0 -16 9 -19 20 -6 23 -27 27 -27
5z"/>
<path d="M751 10054 c-1 -11 -14 -60 -31 -110 l-30 -89 30 32 c38 42 55 103
42 152 -6 21 -10 28 -11 15z"/>
<path d="M436 10045 c-9 -25 -7 -70 5 -102 11 -29 57 -83 71 -83 6 0 -56 187
-66 197 -2 2 -6 -3 -10 -12z"/>
<path d="M1181 10024 c-12 -15 -21 -37 -21 -49 0 -38 37 -75 75 -75 42 0 65
29 65 81 0 68 -77 96 -119 43z m77 -6 c20 -20 15 -76 -9 -88 -43 -24 -80 48
-43 84 19 19 36 20 52 4z"/>
<path d="M1340 9975 c0 -60 3 -75 15 -75 12 0 15 13 15 60 0 55 2 60 25 66 14
3 25 10 25 15 0 13 -34 11 -48 -3 -9 -9 -12 -9 -12 0 0 7 -4 12 -10 12 -6 0
-10 -32 -10 -75z"/>
<path d="M1610 9945 c0 -87 3 -105 15 -105 11 0 15 11 15 42 0 33 3 39 12 30
20 -20 65 -14 82 10 22 31 20 91 -2 111 -22 20 -63 22 -80 5 -9 -9 -12 -9 -12
0 0 7 -7 12 -15 12 -12 0 -15 -18 -15 -105z m98 73 c17 -17 15 -64 -4 -82 -21
-22 -31 -20 -50 9 -31 47 16 111 54 73z"/>
<path d="M1790 9975 c0 -60 3 -75 15 -75 12 0 15 13 15 60 0 55 2 60 25 66 14
3 25 10 25 15 0 13 -34 11 -48 -3 -9 -9 -12 -9 -12 0 0 7 -4 12 -10 12 -6 0
-10 -32 -10 -75z"/>
<path d="M1901 10024 c-12 -15 -21 -37 -21 -49 0 -38 37 -75 75 -75 18 0 38 7
45 15 17 21 4 32 -20 17 -26 -16 -35 -15 -54 4 -27 26 -18 34 40 34 l56 0 -7
27 c-10 41 -24 53 -60 53 -24 0 -39 -7 -54 -26z m77 -6 c21 -21 13 -28 -28
-28 -38 0 -40 2 -30 20 12 22 40 26 58 8z"/>
<path d="M2058 10025 c-14 -30 -3 -44 44 -61 18 -6 33 -15 35 -21 6 -18 -34
-25 -56 -11 -25 15 -39 4 -21 -17 16 -20 74 -19 94 1 30 29 14 58 -40 73 -15
4 -29 12 -32 19 -6 18 28 27 49 14 24 -15 29 -15 29 2 0 17 -22 26 -61 26 -22
0 -32 -7 -41 -25z"/>
<path d="M2208 10025 c-14 -30 -3 -44 44 -61 18 -6 33 -15 35 -21 6 -18 -34
-25 -56 -11 -25 15 -39 4 -21 -17 16 -20 74 -19 94 1 30 29 14 58 -40 73 -15
4 -29 12 -32 19 -6 18 28 27 49 14 24 -15 29 -15 29 2 0 17 -22 26 -61 26 -22
0 -32 -7 -41 -25z"/>
<path d="M2510 9975 c0 -60 3 -75 15 -75 12 0 15 13 15 59 0 51 3 61 20 66 32
10 40 -3 40 -66 0 -46 3 -59 15 -59 12 0 15 14 15 63 0 69 -10 87 -50 87 -14
0 -31 -5 -38 -12 -9 -9 -12 -9 -12 0 0 7 -4 12 -10 12 -6 0 -10 -32 -10 -75z"/>
<path d="M2776 10028 c-22 -31 -20 -80 4 -106 24 -26 81 -30 100 -7 18 22 4
31 -24 16 -27 -15 -66 -1 -66 24 0 11 13 15 56 15 47 0 55 3 50 16 -3 9 -6 19
-6 24 0 19 -34 40 -65 40 -24 0 -39 -7 -49 -22z m84 -18 c10 -18 8 -20 -30
-20 -41 0 -49 7 -28 28 18 18 46 14 58 -8z"/>
<path d="M2935 10019 c-32 -61 15 -136 70 -111 22 10 25 9 25 -8 0 -27 -28
-40 -62 -28 -35 13 -44 6 -23 -16 21 -20 64 -21 93 0 20 14 22 24 22 103 l0
88 -55 2 c-51 1 -55 -1 -70 -30z m83 -1 c13 -13 16 -47 6 -72 -9 -25 -53 -20
-63 7 -18 48 24 98 57 65z"/>
<path d="M3100 9975 c0 -60 3 -75 15 -75 11 0 15 12 15 49 0 48 13 73 42 84 7
2 9 8 5 13 -4 4 -17 3 -27 -4 -12 -7 -20 -8 -20 -2 0 5 -7 10 -15 10 -12 0
-15 -15 -15 -75z"/>
<path d="M3220 10035 c-18 -22 -4 -31 24 -15 27 14 60 7 54 -12 -3 -7 -19 -16
-37 -19 -49 -10 -67 -32 -53 -64 13 -27 58 -35 80 -13 9 9 12 9 12 0 0 -7 7
-12 15 -12 12 0 15 13 15 56 0 76 -11 94 -59 94 -22 0 -44 -6 -51 -15z m80
-78 c0 -31 -51 -50 -66 -25 -8 13 22 38 48 38 10 0 18 -6 18 -13z"/>
<path d="M3470 9975 c0 -60 3 -75 15 -75 12 0 15 15 15 75 0 60 -3 75 -15 75
-12 0 -15 -15 -15 -75z"/>
<path d="M3546 10028 c-36 -52 -5 -128 53 -128 58 0 91 77 55 128 -11 16 -25
22 -54 22 -29 0 -43 -6 -54 -22z m78 -14 c9 -8 16 -26 16 -39 0 -23 -23 -55
-40 -55 -17 0 -40 32 -40 55 0 23 23 55 40 55 5 0 16 -7 24 -16z"/>
<path d="M3710 9975 c0 -60 3 -75 15 -75 12 0 15 13 15 59 0 51 3 61 20 66 32
10 40 -3 40 -66 0 -46 3 -59 15 -59 12 0 15 14 15 63 0 69 -10 87 -50 87 -14
0 -31 -5 -38 -12 -9 -9 -12 -9 -12 0 0 7 -4 12 -10 12 -6 0 -10 -32 -10 -75z"/>
<path d="M401 9999 c0 -19 4 -43 9 -54 6 -13 7 -2 3 30 -7 59 -13 72 -12 24z"/>
<path d="M792 10005 c0 -16 2 -22 5 -12 2 9 2 23 0 30 -3 6 -5 -1 -5 -18z"/>
<path d="M580 9915 c-25 -74 -21 -85 33 -85 39 0 41 16 14 90 l-24 63 -23 -68z"/>
<path d="M430 9901 c5 -11 15 -23 21 -27 6 -3 3 5 -6 20 -20 30 -30 35 -15 7z"/>
<path d="M734 9869 c-10 -12 -37 -30 -59 -40 -22 -10 -34 -19 -27 -19 21 0 65
26 91 54 14 14 22 26 19 26 -3 0 -13 -10 -24 -21z"/>
<path d="M470 9856 c0 -2 8 -10 18 -17 15 -13 16 -12 3 4 -13 16 -21 21 -21
13z"/>
<path d="M588 9803 c6 -2 18 -2 25 0 6 3 1 5 -13 5 -14 0 -19 -2 -12 -5z"/>
<path d="M7395 9780 c-3 -5 -1 -10 4 -10 6 0 11 5 11 10 0 6 -2 10 -4 10 -3 0
-8 -4 -11 -10z"/>
<path d="M26081 9758 c0 -10 -6 -18 -12 -18 -8 0 -8 -4 -1 -13 6 -7 12 -35 14
-62 2 -41 7 -50 23 -53 18 -2 18 -2 3 8 -13 8 -18 24 -18 55 0 31 5 47 18 54
15 9 15 10 0 11 -9 0 -19 8 -21 18 -4 16 -5 16 -6 0z"/>
<path d="M7402 9670 c-1 -43 -7 -81 -14 -88 -9 -9 -9 -12 0 -12 19 0 23 21 19
101 l-3 74 -2 -75z"/>
<path d="M7462 9690 c-2 -53 9 -80 32 -80 5 0 2 8 -7 18 -9 9 -17 40 -20 67
l-3 50 -2 -55z"/>
<path d="M7538 9688 c-3 -29 -1 -60 3 -68 5 -9 9 13 9 53 0 80 -6 88 -12 15z"/>
<path d="M7603 9675 c0 -57 1 -60 4 -20 3 27 10 56 16 64 9 11 9 13 0 8 -6 -4
-14 -1 -16 5 -3 7 -5 -18 -4 -57z"/>
<path d="M7655 9726 c13 -9 21 -32 26 -67 l6 -54 2 56 c1 56 -10 79 -38 79
-11 0 -10 -3 4 -14z"/>
<path d="M16570 9724 c-12 -13 -10 -14 14 -3 23 11 29 10 44 -5 15 -15 15 -18
2 -26 -8 -5 -25 -10 -36 -10 -32 0 -48 -24 -34 -49 11 -21 44 -28 54 -12 4 5
-3 7 -14 4 -13 -3 -22 1 -26 12 -8 20 2 30 40 39 26 6 28 5 23 -16 -4 -13 -2
-30 3 -38 7 -10 10 2 10 42 0 47 -4 59 -19 68 -27 14 -46 13 -61 -6z"/>
<path d="M16707 9722 c-19 -21 -22 -54 -7 -83 8 -13 20 -19 43 -18 27 2 28 2
7 6 -26 5 -50 28 -50 49 0 6 8 22 18 34 16 19 22 21 40 11 19 -10 22 -20 22
-75 0 -57 -2 -64 -22 -69 -12 -3 -30 -2 -40 4 -10 6 -18 6 -18 1 0 -9 32 -21
53 -22 4 0 16 9 27 20 16 16 20 33 20 90 0 40 -4 70 -10 70 -5 0 -10 -5 -10
-12 0 -9 -3 -9 -12 0 -17 17 -42 15 -61 -6z"/>
<path d="M16857 9722 c-23 -25 -21 -75 3 -97 26 -24 68 -13 81 22 24 63 -42
122 -84 75z m54 -2 c13 -7 19 -21 19 -45 0 -30 -20 -55 -44 -55 -13 0 -36 34
-36 55 0 13 7 31 16 39 18 19 20 19 45 6z"/>
<path d="M25816 9724 c-24 -24 -20 -34 24 -51 22 -9 40 -22 40 -29 0 -17 -39
-29 -53 -15 -17 17 -31 13 -17 -4 15 -18 51 -20 68 -3 23 23 13 46 -23 58 -36
12 -46 36 -19 47 8 3 20 1 27 -6 17 -17 31 -13 17 4 -16 19 -44 19 -64 -1z"/>
<path d="M25947 9722 c-34 -37 -10 -112 34 -112 18 0 59 29 42 30 -6 0 -15 -4
-18 -10 -9 -15 -31 -12 -49 6 -26 25 -19 34 29 34 38 0 45 3 45 19 0 24 -26
51 -49 51 -10 0 -25 -8 -34 -18z m58 -5 c24 -18 11 -37 -25 -37 -36 0 -45 13
-24 34 19 19 25 20 49 3z"/>
<path d="M7740 9620 c0 -5 5 -10 10 -10 6 0 10 5 10 10 0 6 -4 10 -10 10 -5 0
-10 -4 -10 -10z"/>
<path d="M16990 9619 c0 -5 5 -7 10 -4 6 3 10 8 10 11 0 2 -4 4 -10 4 -5 0
-10 -5 -10 -11z"/>
<path d="M26155 9620 c3 -5 8 -10 11 -10 2 0 4 5 4 10 0 6 -5 10 -11 10 -5 0
-7 -4 -4 -10z"/>
<path d="M434 8757 c-2 -7 -3 -65 -2 -128 l3 -114 48 -3 c55 -4 65 15 10 20
l-38 3 0 105 0 105 38 3 c52 4 46 22 -8 22 -28 0 -48 -5 -51 -13z"/>
<path d="M954 8743 c-34 -6 -57 -38 -50 -67 5 -19 18 -30 56 -43 55 -19 66
-44 29 -64 -18 -9 -27 -7 -50 10 -33 25 -39 26 -39 8 0 -24 35 -47 71 -47 87
1 102 86 19 111 -51 15 -67 33 -50 54 7 8 21 15 31 15 9 0 24 -7 33 -15 20
-20 38 -19 34 2 -4 20 -54 41 -84 36z"/>
<path d="M1080 8735 c0 -8 7 -15 15 -15 8 0 15 7 15 15 0 8 -7 15 -15 15 -8 0
-15 -7 -15 -15z"/>
<path d="M1910 8711 c0 -11 -6 -22 -12 -25 -10 -5 -10 -7 0 -12 7 -3 12 -26
12 -58 0 -54 12 -76 42 -76 22 0 24 16 3 24 -11 4 -15 20 -15 56 0 38 4 50 15
50 8 0 15 5 15 10 0 6 -7 10 -15 10 -8 0 -15 9 -15 20 0 11 -7 20 -15 20 -8 0
-15 -9 -15 -19z"/>
<path d="M606 8712 c-3 -5 3 -17 14 -27 32 -29 24 -35 -45 -35 -37 0 -65 -4
-65 -10 0 -6 28 -10 65 -10 36 0 65 -3 65 -7 0 -4 -9 -17 -21 -29 -11 -12 -17
-24 -12 -27 11 -7 83 60 82 76 -1 17 -76 80 -83 69z"/>
<path d="M1080 8615 c0 -60 3 -75 15 -75 12 0 15 15 15 75 0 60 -3 75 -15 75
-12 0 -15 -15 -15 -75z"/>
<path d="M1167 8672 c-24 -26 -22 -87 4 -113 20 -20 32 -21 72 -4 12 5 17 2
17 -8 0 -24 -30 -49 -49 -41 -35 14 -51 16 -51 6 0 -30 72 -41 105 -16 17 12
21 29 23 104 3 77 2 90 -12 90 -9 0 -16 -5 -16 -12 0 -9 -3 -9 -12 0 -18 18
-63 14 -81 -6z m79 -31 c16 -31 3 -65 -26 -69 -26 -4 -40 12 -40 49 0 50 44
64 66 20z"/>
<path d="M1330 8615 c0 -60 3 -75 15 -75 12 0 15 13 15 59 0 51 3 61 20 66 32
10 40 -3 40 -66 0 -46 3 -59 15 -59 12 0 15 14 15 63 0 69 -10 87 -50 87 -14
0 -31 -5 -38 -12 -9 -9 -12 -9 -12 0 0 7 -4 12 -10 12 -6 0 -10 -32 -10 -75z"/>
<path d="M1581 8664 c-12 -15 -21 -37 -21 -49 0 -38 37 -75 75 -75 42 0 65 29
65 81 0 68 -77 96 -119 43z m77 -6 c20 -20 15 -76 -9 -88 -43 -24 -80 48 -43
84 19 19 36 20 52 4z"/>
<path d="M1740 8627 c0 -69 10 -87 50 -87 14 0 31 5 38 12 9 9 12 9 12 0 0 -7
7 -12 15 -12 12 0 15 15 15 75 0 60 -3 75 -15 75 -11 0 -15 -11 -15 -43 0 -50
-18 -81 -46 -75 -16 3 -20 13 -22 61 -2 42 -7 57 -17 57 -12 0 -15 -15 -15
-63z"/>
<path d="M27791 7777 c-69 -24 -98 -116 -54 -175 39 -53 134 -60 177 -13 80
89 -10 227 -123 188z"/>
<path d="M28630 7755 c0 -8 5 -15 10 -15 6 0 10 7 10 15 0 8 -4 15 -10 15 -5
0 -10 -7 -10 -15z"/>
<path d="M28130 7675 c0 -50 4 -85 10 -85 6 0 10 13 10 29 0 26 4 29 40 35 49
8 70 41 52 81 -10 22 -18 25 -62 25 l-50 0 0 -85z m92 52 c14 -22 8 -37 -16
-49 -35 -15 -56 -4 -56 30 0 16 3 32 7 36 10 10 56 -3 65 -17z"/>
<path d="M28420 7675 c0 -50 4 -85 10 -85 6 0 10 5 10 12 0 9 3 9 12 0 19 -19
55 -14 72 10 20 29 20 58 0 87 -14 19 -23 22 -50 18 -31 -5 -34 -3 -34 19 0
13 -4 24 -10 24 -6 0 -10 -35 -10 -85z m88 13 c16 -16 15 -53 -3 -68 -33 -28
-71 12 -54 58 9 24 38 29 57 10z"/>
<path d="M28570 7675 c0 -50 4 -85 10 -85 6 0 10 35 10 85 0 50 -4 85 -10 85
-6 0 -10 -35 -10 -85z"/>
<path d="M28810 7675 c0 -50 4 -85 10 -85 6 0 10 16 10 36 0 45 15 74 39 74
23 0 31 -19 31 -71 0 -21 5 -39 10 -39 15 0 12 93 -3 115 -11 14 -22 17 -45
12 -29 -6 -32 -4 -32 18 0 14 -4 25 -10 25 -6 0 -10 -35 -10 -85z"/>
<path d="M29190 7736 c0 -22 -3 -24 -34 -19 -27 4 -36 1 -50 -18 -20 -29 -20
-58 0 -87 17 -24 53 -29 72 -10 9 9 12 9 12 0 0 -7 5 -12 10 -12 6 0 10 35 10
85 0 50 -4 85 -10 85 -5 0 -10 -11 -10 -24z m-15 -81 c0 -43 -22 -58 -50 -35
-32 27 -10 84 30 78 16 -2 20 -11 20 -43z"/>
<path d="M33002 7748 c-20 -20 -13 -32 7 -14 25 23 55 17 59 -12 3 -17 -2 -25
-17 -29 -22 -6 -29 -23 -10 -23 11 0 49 37 49 47 0 2 -5 13 -10 24 -12 22 -59
26 -78 7z"/>
<path d="M33151 7746 c-19 -23 -25 -83 -11 -116 16 -40 54 -50 82 -23 23 24
28 95 9 131 -14 26 -62 30 -80 8z m69 -15 c5 -11 10 -37 10 -59 0 -65 -58 -95
-76 -39 -10 32 -6 87 7 103 16 20 47 17 59 -5z"/>
<path d="M33320 7702 c-19 -31 -36 -60 -38 -64 -2 -5 15 -8 37 -8 34 0 43 -4
51 -22 9 -23 9 -23 9 -1 1 12 7 24 14 26 10 4 10 6 0 6 -9 1 -13 20 -13 61 0
77 -14 77 -60 2z m48 -18 c-3 -36 -5 -39 -37 -42 -37 -4 -36 -5 -1 55 28 48
43 43 38 -13z"/>
<path d="M28280 7674 c0 -69 12 -84 65 -82 l45 2 0 63 c0 48 -3 63 -14 63 -11
0 -16 -15 -18 -52 -2 -42 -7 -54 -22 -56 -25 -5 -36 14 -36 66 0 23 -4 42 -10
42 -5 0 -10 -21 -10 -46z"/>
<path d="M28630 7655 c0 -37 4 -65 10 -65 6 0 10 28 10 65 0 37 -4 65 -10 65
-6 0 -10 -28 -10 -65z"/>
<path d="M28691 7701 c-13 -24 4 -46 42 -55 34 -8 36 -36 3 -36 -14 0 -28 5
-31 10 -4 6 -11 8 -16 4 -17 -10 12 -34 41 -34 58 0 67 58 12 74 -47 13 -43
40 5 31 33 -6 35 -5 24 9 -19 22 -68 20 -80 -3z"/>
<path d="M28966 7698 c-32 -46 -7 -108 43 -108 16 0 34 7 41 15 11 13 8 14
-19 9 -30 -6 -61 8 -61 27 0 5 22 9 49 9 46 0 49 1 44 23 -9 34 -23 47 -54 47
-17 0 -34 -8 -43 -22z m72 -15 c2 -9 -8 -13 -33 -13 -33 0 -36 2 -25 15 15 18
51 16 58 -2z"/>
<path d="M33077 7646 c7 -35 -29 -53 -63 -31 -13 8 -24 11 -24 5 0 -20 48 -34
75 -22 25 11 36 54 16 66 -4 3 -6 -5 -4 -18z"/>
<path d="M28175 7280 c-38 -15 -49 -41 -46 -107 4 -83 141 -83 141 0 0 23 -4
27 -30 27 -16 0 -30 -4 -30 -10 0 -5 9 -10 20 -10 22 0 26 -20 8 -38 -34 -34
-88 2 -88 60 0 56 43 79 85 46 31 -24 47 -15 19 11 -24 24 -53 32 -79 21z"/>
<path d="M29032 7281 c4 -13 18 -16 19 -4 0 4 -5 9 -11 12 -7 2 -11 -2 -8 -8z"/>
<path d="M33312 7268 c-6 -6 -12 -16 -12 -22 0 -5 6 -2 13 8 20 27 62 18 62
-14 0 -18 -6 -26 -22 -28 -28 -4 -31 -22 -4 -22 40 0 51 -50 14 -64 -9 -4 -27
1 -40 10 -14 8 -27 13 -30 11 -2 -3 7 -13 21 -22 22 -15 31 -15 56 -5 34 14
41 52 13 69 -14 9 -15 12 -5 19 8 5 12 22 10 38 -2 24 -8 30 -33 32 -17 2 -36
-3 -43 -10z"/>
<path d="M28960 7256 c0 -8 -6 -17 -12 -19 -10 -4 -10 -7 -1 -14 6 -5 13 -31
15 -58 3 -45 6 -50 28 -53 23 -2 24 -1 8 11 -21 17 -25 92 -5 101 10 5 10 7 0
12 -7 3 -13 12 -13 20 0 8 -4 14 -10 14 -5 0 -10 -6 -10 -14z"/>
<path d="M28319 7224 c-7 -9 -13 -31 -13 -49 0 -55 36 -79 88 -59 28 11 17 21
-21 20 -28 -1 -38 3 -41 17 -3 14 4 17 42 17 50 0 57 10 30 48 -18 26 -65 30
-85 6z m69 -21 c2 -9 -7 -13 -27 -13 -30 0 -39 9 -24 24 11 10 46 3 51 -11z"/>
<path d="M28450 7173 c0 -76 18 -85 22 -10 3 48 5 52 28 52 23 0 25 -4 28 -52
4 -69 22 -68 22 1 0 63 -12 76 -63 74 l-37 -1 0 -64z"/>
<path d="M28599 7224 c-7 -9 -13 -31 -13 -49 0 -55 36 -79 88 -59 28 11 17 21
-21 20 -28 -1 -38 3 -41 17 -3 14 4 17 42 17 50 0 57 10 30 48 -18 26 -65 30
-85 6z m69 -21 c2 -9 -7 -13 -27 -13 -30 0 -39 9 -24 24 11 10 46 3 51 -11z"/>
<path d="M28730 7173 c0 -35 4 -63 10 -63 6 0 10 23 10 51 0 42 3 52 20 56 30
8 24 22 -10 21 l-30 -1 0 -64z"/>
<path d="M28833 7233 c-27 -10 -11 -21 22 -16 27 4 35 2 35 -10 0 -9 -12 -18
-29 -22 -74 -16 -64 -69 13 -71 l46 -1 0 38 c0 61 -15 89 -47 88 -16 0 -34 -3
-40 -6z m57 -83 c-12 -22 -45 -27 -56 -9 -8 14 14 29 44 29 20 0 21 -3 12 -20z"/>
<path d="M29030 7175 c0 -37 4 -65 10 -65 6 0 10 28 10 65 0 37 -4 65 -10 65
-6 0 -10 -28 -10 -65z"/>
<path d="M29090 7175 c0 -78 16 -87 22 -12 5 56 1 77 -13 77 -5 0 -9 -29 -9
-65z"/>
<path d="M29125 7230 c-4 -6 5 -10 19 -10 25 0 26 -3 26 -55 0 -42 3 -55 15
-55 11 0 15 11 15 39 0 60 -15 91 -44 91 -14 0 -28 -4 -31 -10z"/>
<path d="M29246 7222 c-26 -29 -21 -78 10 -99 21 -14 29 -14 46 -4 18 11 19
10 16 -11 -3 -20 -9 -23 -40 -22 -39 1 -50 -9 -22 -20 25 -10 59 -7 72 6 7 7
12 42 12 88 l0 77 -39 1 c-26 1 -43 -4 -55 -16z m72 -38 c3 -34 -18 -60 -43
-50 -21 8 -28 31 -21 62 5 20 12 25 34 22 22 -2 28 -9 30 -34z"/>
<path d="M720 850 c-18 -18 -20 -33 -20 -134 0 -143 -2 -141 134 -141 l101 0
3 139 c2 105 -1 141 -10 148 -7 4 -52 8 -100 8 -75 0 -91 -3 -108 -20z m190
-94 l0 -85 -90 -3 -90 -3 0 88 0 87 90 0 90 0 0 -84z m0 -136 c0 -19 -7 -20
-90 -20 -83 0 -90 1 -90 20 0 19 7 20 90 20 83 0 90 -1 90 -20z"/>
<path d="M834 769 c-13 -14 -25 -18 -42 -14 -27 7 -27 -12 1 -29 13 -8 23 -4
47 19 16 16 30 32 30 37 0 14 -16 9 -36 -13z"/>
<path d="M1160 725 l0 -85 50 0 c28 0 50 5 50 10 0 6 -16 10 -35 10 l-35 0 0
75 c0 60 -3 75 -15 75 -12 0 -15 -16 -15 -85z"/>
<path d="M1307 752 c-22 -25 -21 -75 1 -95 22 -20 65 -22 81 -4 15 19 3 28
-19 15 -21 -14 -50 -4 -50 17 0 11 11 15 40 15 33 0 40 3 40 19 0 46 -62 67
-93 33z m67 -17 c4 -12 -3 -15 -31 -15 -30 0 -34 2 -23 15 7 8 20 15 30 15 10
0 20 -7 24 -15z"/>
<path d="M1446 748 c-32 -45 -7 -108 42 -108 34 0 57 14 48 29 -5 8 -12 7 -25
-1 -22 -14 -51 -4 -51 17 0 11 11 15 46 15 42 0 45 1 38 23 -10 35 -24 47 -55
47 -17 0 -34 -8 -43 -22z m72 -15 c2 -9 -7 -13 -27 -13 -30 0 -39 9 -24 24 11
10 46 3 51 -11z"/>
<path d="M1572 683 c2 -58 7 -88 16 -91 8 -2 12 8 12 34 0 30 3 35 12 26 33
-33 78 -2 78 53 0 55 -45 86 -78 53 -9 -9 -12 -9 -12 0 0 7 -7 12 -15 12 -13
0 -15 -14 -13 -87z m88 52 c15 -18 5 -64 -15 -72 -35 -13 -61 47 -33 75 16 16
33 15 48 -3z"/>
</g>
</svg>
